<?xml version="1.0" encoding="utf-8"?>
<!-- Generator: Adobe Illustrator 24.0.1, SVG Export Plug-In . SVG Version: 6.00 Build 0)  -->
<svg version="1.1" id="图层_1" xmlns="http://www.w3.org/2000/svg" xmlns:xlink="http://www.w3.org/1999/xlink" x="0px" y="0px"
	 viewBox="0 0 1551.37 530.64" style="enable-background:new 0 0 1551.37 530.64;" xml:space="preserve">
<style type="text/css">
	.st0{fill-rule:evenodd;clip-rule:evenodd;fill:#0067AB;}
	.st1{fill-rule:evenodd;clip-rule:evenodd;fill:#FFFFFF;}
	.st2{fill-rule:evenodd;clip-rule:evenodd;fill:#00AEEF;}
	.st3{fill:#FFFFFF;}
	.st4{fill:#0067AB;}
</style>
<g>
	<g>
		<path class="st0" d="M644.7,320.83c-0.97-0.64-1.82-1.28-2.67-1.79c-0.59-10.22-1-11.5,7.43-17.89c2.68-6.39,3.05-12.65,5.68-18.4
			c1.37-7.54,3.89-18.4,3.93-25.3c-1.15,0-2.17,0-3.19,0c-2.95,8.18-8.23,16.74-12.37,25.3c-8.28,7.67-11.39-4.6-8.05-9.58
			c1.22-4.09,3.73-8.31,5.31-12.14c-0.92-1.28-0.92-1.28-2.03-1.79c-7.04,6.52-8.08,9.97-9.6,19.42c-1.12,2.81-2.25,5.75-3.38,8.69
			c-5.14,1.92-9.37,0.51-10.73-3.19c0.67-6.77,1.32-13.42,1.98-20.06c1.98-7.16,7.45-18.14,7.94-24.28
			c-0.61-0.38-1.09-0.77-1.58-1.02c-6.07,2.43-13.19,9.97-14.99,16.48c-1.25,12.52-4.55,33.09-14.09,43.7
			c-2.06,4.98-2.06,4.98-3.69,7.79c-1.32,10.09-8.11,15.21-15.4,7.28c-2.14-6.77-1.29-11.12-0.81-17.12
			c-1.41-9.58,1.46-18.27,1.83-27.73c1.54-6.52,4.16-15.33,8.22-19.81c2.23,2.43,3.74,9.2,5.92,13.93
			c-0.08,1.02-1.43,9.97,1.51,9.97c3.62-3.71,8.63-20.06,9.41-25.04c2.51-4.22,3.47-6.64,7.43-13.03
			c5.42-7.03,13.12-13.93,20.43-19.04c6.05-8.56,7.1-23.38,10.52-32.58c1.36-10.61-0.84-10.35,9-10.35
			c4.44,3.58,5.69,13.54,9.02,19.93c2.89,0.64,8.22,2.68,10.48,6.39c0.14,4.6,0.14,4.6,0.71,5.49c2.3,0,3.2-0.13,5.53-2.04
			c11.7-4.09,21.98-22.49,35.12-14.18c3.29,6.77,2.01,13.29-1.66,20.83c-2.88,15.33-2.88,15.33-4.05,18.78
			c0.12,22.49,1.55,44.72-0.32,68.1c-2.05,8.05-6.23,10.86-13.81,11.37c-3.44-1.79-3.98-7.79-4.45-9.84
			c-4.66-4.09-10.34-8.18-13.86-12.01c-1.14-0.13-2.28-0.26-3.42-0.38C663.17,297.45,660.05,317.39,644.7,320.83L644.7,320.83z
			 M688.08,284.67c2.62-2.43,2.09-10.22,1.03-11.37c-8.59-1.28-11.79-1.15-15.66-7.16c-4.34,0-3.13,5.62-2.79,9.33
			C675.14,281.99,680.92,281.61,688.08,284.67L688.08,284.67z M686.81,257.33c4.28-0.77,5.28-0.51,4-5.24
			c0.22-15.59,1.93-29.01,3.46-43.44c-3.53-3.83-12.31,5.37-14.4,7.54c-2.84,0.38-7.53-0.13-8.58,1.79
			c0.56,1.02,1.24,2.04,1.92,3.19c9.79,5.37,12.44,10.61,11.39,23.77C682.77,250.3,682.62,252.22,686.81,257.33L686.81,257.33z
			 M630.72,250.94c1.04-0.26,2.08-0.51,3.12-0.64c4.06-4.47,7-6.01,12.44-8.56c2.83,1.41,2.96,1.28,4.5,6.01
			c9.9,2.43,11.91-21.21,12.38-27.09c-0.6-2.04-1.21-4.09-1.68-6.13c-0.88-0.13-1.64-0.26-2.4-0.38c-1.8,1.79-3.61,3.58-5.42,5.49
			c-12.22,5.88-17.85,15.59-22.09,28.62c-0.4,0.26-0.68,0.51-0.96,0.77C630.56,249.66,630.64,250.3,630.72,250.94L630.72,250.94z
			 M671.12,245.83c2.35-2.17,1.87-5.88,1.23-7.41c-0.26,0-0.51,0-0.77,0C670.68,240.08,670.21,242.76,671.12,245.83L671.12,245.83z
			 M592.23,220.79c2.36-0.77,5.7-7.41,6.43-8.56c7.58-8.56,11.85-18.78,13.31-29.13c-2.84-12.52-5.11-17.63-17.2-15.08
			c-7.35,8.82,0.85,19.81,0.64,30.41C594.46,204.05,589.77,214.78,592.23,220.79z"/>
		<path class="st0" d="M1075.03,320.83c-6.77-3.96-4.73-4.73-4.47-11.37c6.26-3.45,6.26-3.45,14.31-6.9
			c4.47-3.19,8.94-6.26,13.54-9.33c2.43-2.43,6.64-3.32,5.88-7.54c-3.71,0-4.98,0.38-15.33,0.38c-1.53-1.53-2.94-2.94-4.34-4.34
			c0.89-8.82,8.43-8.82,16.36-11.76c-2.04-4.22-3.71-2.56-6.39-2.68c-5.37-2.17-3.58-5.62-3.71-9.07c1.79-2.81,9.33-1.41,9.33-6.13
			c-6.77-1.92-6.13-10.22-5.24-14.69c-5.24-1.66-8.69,0.77-12.27,3.96c-1.79,0.38-3.58,0.77-5.24,1.28
			c-9.46,8.56-29.64,6.39-25.56-8.05c5.37-4.34,12.14-3.45,19.68-3.83c8.18-2.81,16.99-6.77,25.68-9.46
			c2.81-2.56,3.71-11.5,0.64-10.35c-0.89,1.53-1.41,3.58-2.3,4.86c-8.69,1.79-10.22,1.66-16.1-3.07
			c-0.64-14.18-0.51-14.06,13.42-14.06c9.07-4.98,7.03-15.46,7.41-23.89c1.53-3.07,3.32-3.32,6.9-3.71
			c6.52,5.24,7.54,5.88,8.05,15.59c-0.64,2.43-1.66,4.86,0,8.31c2.3-2.68,12.39-16.1,16.23-12.27c0.13,1.53,0.26,3.07,0.38,4.6
			c-0.77,0.51-1.53,1.02-2.17,1.53c0,1.92-1.28,8.94,0.13,11.12c0.77-1.92,0.77-1.92,1.66-9.07c0.38-0.26,0.89-0.38,1.41-0.51
			c1.28-9.2,1.02-16.87,2.43-25.17c6.77-8.56,14.31,2.04,15.72,10.35c-0.26,1.02-0.51,2.17-0.77,3.32
			c-2.56,4.22-10.99,23.26-6.26,27.98c4.22-0.64,10.09-2.56,15.08-0.77c5.49,7.92,11.12,19.04-3.83,19.04
			c-4.09-2.17-14.95-9.58-18.27-7.41c-0.13,1.02-0.13,2.17-0.13,3.32c4.86,2.81,8.56,9.58,4.09,16.1c-1.79,1.02-3.58,2.17-5.37,3.32
			c0,1.15,0,2.43,0.13,3.71c4.47,7.54-3.83,8.69-6.39,13.8c6.77,3.96,10.48-3.58,9.71,9.33c-5.75,4.09-15.21,5.24-18.66,10.35
			c-0.51,11.12-0.89,22.23-1.28,33.35c-2.68,5.49-10.22,6.77-13.54,2.3c-1.02-4.86-5.11-7.54-7.79-8.18
			c-6.39,3.19-10.61,11.12-16.48,14.95C1079.12,320.32,1077.08,320.58,1075.03,320.83L1075.03,320.83z M1146.21,310.1
			c7.41-1.41,6.77-11.37,3.96-15.84c-1.53-1.53-3.07-3.07-4.6-4.6c-6.52-2.17-16.87-5.37-20.96,0.13
			C1129.34,295.54,1138.67,306.65,1146.21,310.1L1146.21,310.1z M1112.09,248c0.51-0.26,1.02-0.51,1.53-0.77
			c0.13-0.51,0.26-1.02,0.38-1.53c-0.51-0.13-1.02-0.13-1.53-0.13c-0.38,0.51-0.77,1.02-1.02,1.53
			C1111.58,247.36,1111.83,247.62,1112.09,248L1112.09,248z M1114.65,245.45c3.19-0.77,9.84-7.16,9.84-10.61
			c-0.51,0-1.02,0-1.53,0.13c-0.13,0.26-0.26,0.64-0.26,1.02C1119.12,237.4,1114.65,241.1,1114.65,245.45L1114.65,245.45z
			 M1112.09,231.39c4.34-1.28,8.43-4.86,12.91-7.54c0-0.64,0-1.15,0-1.66C1121.42,222.32,1105.57,224.87,1112.09,231.39
			L1112.09,231.39z M1114.65,213.12c0.77-0.38,1.53-0.77,2.43-1.02c-1.53,0-2.94,0-4.34,0
			C1113.37,212.35,1114.01,212.74,1114.65,213.12L1114.65,213.12z M1121.03,212.61c0.38-0.26,0.77-0.51,1.28-0.64
			c-0.89,0-1.79,0-2.56,0C1120.14,212.1,1120.52,212.35,1121.03,212.61z"/>
		<path class="st0" d="M1400.77,320.32c-3.9-1.15-13.23-5.49-14.67-7.03c-0.18-1.28-0.37-2.43-0.43-3.58
			c0.68-0.77,1.37-1.53,2.05-2.3c8.77,0.89,21.21,4.47,31.13,0.77c8.73-0.77,7.99-7.79,7.86-14.57c-0.85-5.24-1.71-10.35-2.56-15.46
			c-7.9-2.68-27.65,12.01-35.54,15.97c-3.98,0.38-7.97,0.89-11.96,1.41c-2.99-1.28-4.12-1.66-6.54-1.79
			c-1.93-2.04-0.36-7.16,0.99-8.43c3.94-1.79,8.33-2.68,12.26-4.34c7.19-4.98,12.74-8.18,21.57-10.73
			c5.39-2.56,12.26-4.34,18.37-6.13c1.28-2.3,13.21-3.07,17.05-3.19c4.18-1.53,8.33-0.51,13.25-3.71c1.54-0.13,1.54-0.13,3.81,0.38
			c1.61,7.54-2.66,13.03-10.59,15.33c-12.43-3.83-9.98,9.2-10.47,17.63c0.67,1.66,1.47,3.32,2.27,4.98
			c-0.32,5.62,1.14,20.19-4.86,24.53C1422.77,320.07,1411.77,320.2,1400.77,320.32L1400.77,320.32z M1360.03,273.17
			c3.49-0.77,10.65-0.77,12.84-1.15c4.78-3.07,9.67-6.01,14.57-8.94c7.84-3.07,15.7-10.86,22.05-16.87
			c5.29-3.07,5.29-3.07,14.2-7.03c3.76-3.19,17.27-9.2,23.13-6.77c-0.84,1.28-1.69,2.68-2.41,4.09c-7.1,5.75-11.39,9.2-17.56,16.61
			c-3.04,1.79-4.78,3.07-2.44,6.9c2.45-0.38,4.18-1.53,6.35-3.71c5.15-2.94,11.33-6.01,15.81-10.48
			c4.26-2.94,16.97-8.43,18.62-12.78c2.62-21.21-17.53-12.91-29.31-5.75c-2.04,0-3.96,0-5.88,0c-0.11-0.26-0.23-0.51-0.35-0.64
			c5.75-2.3,9.72-6.9,15.24-9.58c11.13-0.26,15.97,0,23.81-9.71c1.63-3.83,4-7.41,4.95-10.61c2.71-2.68,2.71-2.68,7.57-9.46
			c3.13-5.62,6.02-11.37,10.85-15.33c1.39-6.39-0.32-14.44-5.59-16.23c-6.1-0.51-12.9-0.13-18.07,0.89
			c-1.58,0.77-20.27,12.52-17.72,6.01c4.73-2.3,6.48-6.01,4.62-11.5c-9.82-9.2-16.75,2.43-21.96,10.86
			c-7.78,8.69-10.44,8.18-21.04,8.18c-3.53-3.07-4.2-4.73-7.35-5.49c-5.78-3.96-8.88-5.49-15.15-5.49
			c-1.55,2.56-2.12,3.58-1.18,7.28c5.96,7.41,8.72,19.55,10.51,30.67c1.03,2.04,1.57,3.83,1.63,7.28c-1.09,3.45-5.51,6.9-8.83,6.9
			c-1.42-6.39-2.84-12.91-5.91-17.25c-1.38-0.38-6.62-0.38-9.2,0c-0.54,0.51-0.54,0.51-1.26,4.09c4.94,9.58,2.25,23.13,3.49,34.88
			c7.83,8.31,11.61,0.38,15.93-8.18c5.92-7.41,4.55-10.35,13.53-8.69c4.26-3.07,2.68-8.94,6.33-12.39c1.15-4.47,0.67-4.98,5.55-5.49
			c4.01,5.75-9.28,8.05-4.84,15.33c3.07,0,8.32-2.56,12.21-3.45c7.37-6.01,9.61,1.79,2.36,7.92c-10.18,5.88-19.84,13.93-29.71,18.91
			c-8.38,5.75-18.81,9.33-25.43,15.59C1372.11,254.26,1345.7,266.91,1360.03,273.17L1360.03,273.17z M1413.3,235.61
			c-0.11-0.26-0.23-0.51-0.22-0.64c4.52-5.37,7.68-6.9,15.19-6.39c0.11,0.38,0.21,0.77,0.32,1.15c-3.07,0-4.06,1.79-6.05,3.07
			C1416.16,234.71,1415.61,235.35,1413.3,235.61L1413.3,235.61z M1445.53,201.62c-0.62-0.38-1.11-0.77-1.6-1.15
			c0.32-1.15,0.76-2.17,1.21-3.19c0.52-0.13,1.03-0.13,1.67-0.13C1446.88,198.17,1446.99,200.72,1445.53,201.62L1445.53,201.62z
			 M1461.21,195.61c-0.76-2.3-1.53-4.47-2.17-6.64c-5.17-3.45-13.78-9.33-9.19-15.72c3.21-0.26,7.17-2.43,11.08-3.83
			c4.49-0.26,12.27-4.6,16.43-1.28c1.73,7.67-9.21,20.32-13.44,27.22C1463.01,195.36,1462.11,195.49,1461.21,195.61z"/>
		<path class="st0" d="M757.25,317c-9.58-3.19-14.06-4.73-7.79-13.42c12.27-5.49,26.58-17.51,36.54-27.47
			c3.45-14.95,3.83-27.6,4.22-41.91c1.28-5.24,10.48-32.33,5.62-35.52c0-8.05,0.64-10.99,9.58-10.99
			c14.82,6.52,8.69,28.88,1.53,40.12c-6.64,18.78-7.67,38.97-8.56,59.8c-0.89,4.09-7.54,14.82-11.12,7.67
			c0.38-1.41,0.38-1.41,0.38-5.62c-0.64-0.51-0.64-0.51-3.45-0.64c-6.39,8.43-15.08,21.21-23.38,27.22
			C759.55,316.49,758.4,316.75,757.25,317L757.25,317z M816.03,293.11c6.26-0.38,16.1-1.92,22.62-4.47
			c6.39-0.13,16.23,1.66,15.08-7.92c-1.66-1.02-1.66-1.02-7.41-2.68c-4.22,0-8.69,2.56-11.76,1.02c0-5.24,2.81-7.28,5.11-10.86
			c2.68-8.56,3.32-10.86,11.5-14.95c1.02-1.15,1.02-1.15,8.43-6.01c0.89-2.17,1.79-4.22,2.81-6.26c-1.92-3.96-3.83-3.19-6.13-4.98
			c0-0.51,0-0.89,0-1.28c10.09-8.05,6.39-16.61,3.45-25.43c-10.86-7.54-12.65,2.3-14.06,11.76c-2.56,4.09-4.98,8.31-7.41,12.52
			c-2.17,4.86-5.11,8.82-7.41,13.42c-4.09,2.04-8.18,4.09-12.14,6.13c-0.13,1.28-0.77,1.53,0.13,3.45
			c9.46,2.68,5.11,10.22,0.64,17.12C814.24,277.65,806.96,288.25,816.03,293.11L816.03,293.11z M758.15,290.55
			c1.02-0.13,2.17-0.26,3.32-0.26c5.88-5.88,13.93-11.63,20.19-16.99c2.04-9.46-0.89-14.57-9.46-16.61
			c-10.73,0-15.33,7.16-6.26,14.95C768.11,275.99,757.51,283.65,758.15,290.55z"/>
		<path class="st0" d="M1205.34,304.27c-5.19-0.82-8.48-5.66-3.06-7.42c0-0.35,0-0.59,0-0.82c6.13-2.24,13.08-6.48,19.33-9.9
			c4.01-5.77,16.03-16.38,15.08-23.33c-3.54-1.18-10.13,4.95-12.26,6.48c-5.66,6.83-14.85,3.54-19.33-1.53
			c1.53-7.31,8.37-6.83,13.2-11.67c7.78-1.65,23.57-8.13,28.52-15.56c4.24-15.2,8.25-38.18,1.18-52.44
			c-0.35-5.77-0.59-9.19,2.71-13.08c8.13-0.24,7.54,2.24,14.26,5.89c1.53,2.24,1.65,12.61,1.53,16.14
			c-2.36,10.84-3.06,22.15-4.36,33.82c2.83,2.12,3.06,0.94,6.48-1.89c5.07-2.59,8.96-3.18,7.66-9.55c0.24-0.47,0.59-0.94,0.94-1.41
			c5.3-0.24,11.19-2.71,16.73-2.71c0.59,1.3,1.65,8.84-0.47,10.96c-7.42,4.12-15.44,10.49-21.92,15.67
			c-6.13,3.65-6.13,3.65-9.78,6.6c0.35,1.53,0.35,1.53,1.53,2.95c8.01,3.54,10.72,16.62,19.33,23.33
			c6.01,6.83,11.31,9.66,21.33,12.02c5.66,0.47,11.2,0.59,17.09,3.89c0.12,1.18,0.24,2.36,0.35,3.54
			c-12.73,5.07-28.99,7.9-41.6,4.24c-4.48-4.48-5.89-6.13-6.72-10.49c-5.19-8.48-8.37-16.62-12.14-24.16
			c-2.12-2.12-2.12-2.12-4.24-5.66c-5.3,0-3.65,4.6-6.72,8.25c-3.89,9.19-8.84,16.73-14.97,25.22
			c-5.19,12.49-15.67,12.02-26.87,12.02C1207.23,303.8,1206.28,304.03,1205.34,304.27z"/>
		<path class="st0" d="M917.26,293.83c-6.77-0.38-18.66-2.81-21.85-6.64c0-13.29,4.86-10.22,16.36-11.5
			c4.47-0.13,8.94-0.26,13.54-0.38c5.49-2.43,14.31-5.37,18.66-10.48c0.26-0.13,0.64-0.26,1.02-0.38c0-3.19,5.88-7.16,8.56-9.33
			c5.88-9.97,14.44-18.66,22.23-26.83c0-0.89,0.13-1.79,0.26-2.56c-1.41-0.13-2.81-0.26-4.22-0.26c-7.79,1.92-28.88,6.64-33.99-0.64
			c-5.75-17.25,15.84-14.31,26.71-14.31c9.84-2.17,20.44-4.22,31.94-4.22c7.92,2.17,9.2,12.65,7.67,20.44
			c-5.49,4.09-12.65,7.79-17.63,12.01c-3.19,3.96-19.17,21.21-16.87,26.58c2.43-0.26,4.86-0.51,7.28-0.64
			c10.22-4.22,22.36-7.41,22.36,9.2c-2.04,4.22-9.07,4.22-12.65,4.86c-14.95,0.77-26.71,2.81-39.99,8.05
			C936.42,289.36,926.84,292.68,917.26,293.83z"/>
	</g>
	<g>
		<g>
			<path class="st0" d="M601.29,347.34h-6.91l-7.75,35.53h6.91l3.05-13.98l0.1-0.45h0.46h11.98l1.46-6.68h-11.73h-0.7l0.15-0.69
				L601.29,347.34L601.29,347.34z M622.75,347.34l-7.75,35.53h-6.91l7.75-35.53H622.75z"/>
			<path class="st0" d="M690.55,347.34h-1.41h-5.96H671.1l-1.46,6.68h11.83h0.7l-0.15,0.69l-1.44,6.61l-0.1,0.45h-0.46h-12.08
				l-1.46,6.68h11.83h0.7l-0.15,0.69l-1.44,6.61l-0.1,0.45h-0.46H664.8l-1.46,6.68h11.84h7.49h0.13L690.55,347.34L690.55,347.34z
				 M667.69,347.34h1.33l-1.46,6.68l0,0l-0.1,0.45l-0.13,0.58l-1.32,6.03l-0.15,0.69h0l-1.03,4.74l-3.58,16.37h-1.27h-5.64
				l7.75-35.53H667.69z"/>
			<polygon class="st0" points="636.58,347.34 629.67,347.34 621.91,382.87 628.89,382.87 629.28,382.87 639.81,382.87 
				642.22,382.87 647.43,382.87 655.18,347.34 648.27,347.34 642.07,375.74 641.97,376.18 641.52,376.18 630.99,376.18 
				630.28,376.18 630.43,375.5 			"/>
			<path class="st0" d="M704.38,347.34h-6.91l-7.75,35.53h6.91l4.42-20.25L704.38,347.34L704.38,347.34z M716.8,376.18l-1.46,6.68
				h-16.61l1.46-6.68H716.8L716.8,376.18z M719.95,361.76l-1.46,6.68h-16.62l1.46-6.68H719.95L719.95,361.76z M723.1,347.34h-16.63
				l-1.46,6.68h16.63L723.1,347.34z"/>
			<polygon class="st0" points="736.93,347.34 730.02,347.34 722.27,382.87 729.18,382.87 			"/>
		</g>
		<g>
			<polygon class="st0" points="769.18,347.44 762.31,347.44 754.6,382.76 761.53,382.76 761.93,382.76 772.39,382.76 
				774.79,382.76 779.97,382.76 787.67,347.44 780.8,347.44 774.64,375.67 774.54,376.12 774.09,376.12 763.62,376.12 
				762.92,376.12 763.07,375.44 			"/>
			<path class="st0" d="M801.43,347.48h-6.86l-7.69,35.25h6.85L801.43,347.48L801.43,347.48z M822.8,347.48l-7.69,35.25h-6.89
				l-8.04-19.72l3.28-15l7.86,20.67l4.63-21.21H822.8z"/>
			<polygon class="st0" points="836.57,347.44 829.69,347.44 821.99,382.76 828.86,382.76 			"/>
			<path class="st0" d="M871.23,347.44h-6.78l-0.26,0.56l-16.18,34.76h6.78L871.23,347.44L871.23,347.44z M850.34,347.44l2.25,19.2
				l-5.52,11.82l-3.62-31.02H850.34z"/>
			<path class="st0" d="M885,347.44h-6.87l-7.71,35.32h6.87l4.4-20.13L885,347.44L885,347.44z M897.35,376.12l-1.45,6.64h-16.51
				l1.45-6.64H897.35L897.35,376.12z M900.48,361.78l-1.45,6.64h-16.52l1.45-6.64H900.48L900.48,361.78z M903.61,347.44h-16.53
				l-1.45,6.64h16.53L903.61,347.44z"/>
			<path class="st0" d="M917.4,347.44h-6.87l-7.71,35.32h6.86l6.45-29.54L917.4,347.44L917.4,347.44z M929.93,382.76h-6.72
				l-8.65-12.28h6.72L929.93,382.76L929.93,382.76z M936.43,347.44l-4.59,21.05h-1.38h-6.19h-9.38l1.45-6.64h9.63h0.45l0.1-0.44
				l1.45-6.64l0.15-0.68h-0.7h-9.38l1.45-6.64h9.62h5.93H936.43z"/>
			<path class="st0" d="M944.56,347.44h-1.16l-4.58,20.98h6.9l0,0h0.42h7.56l1.45-6.64h-7.32h-0.7l0.15-0.68l1.43-6.57l0.1-0.44
				h0.45h8.53h0.72l0,0h7.27l1.45-6.64h-1.36h-6.39h-8.53H944.56L944.56,347.44z M959.53,382.76h-0.08h-6.8l1.45-6.64h0l0.1-0.44
				l1.43-6.57l0.15-0.68h0l0.41-1.88l0.16-0.75l0.88-4h5.05l0,0.01h0.7h1.11L959.53,382.76L959.53,382.76z M952.02,376.12h-12.98
				l0,0.01h-0.45h-1.46l-1.45,6.63h1.21h6.12h7.56L952.02,376.12z"/>
			<polygon class="st0" points="980.99,347.44 974.12,347.44 966.41,382.76 973.29,382.76 			"/>
			<path class="st0" d="M1007.09,347.44h-6.89l-7.71,35.32h6.87l6.16-28.23l0.1-0.44h0.45h8.85l1.45-6.64h-8.61H1007.09
				L1007.09,347.44z M998.11,347.44l-1.45,6.64h-10.19l1.45-6.64H998.11z"/>
			<path class="st0" d="M1031.69,357.55l-3.73-9.98l-6.67,0l5.95,15.44L1031.69,357.55L1031.69,357.55z M1031.05,382.76h-6.83
				l3.8-17.4l15.13-17.92h7.22l-15.68,18.75L1031.05,382.76z"/>
		</g>
		<g>
			<path class="st0" d="M1081.56,347.44h-5.82l-7.71,35.32h6.93h0.39h10.47h2.39h5.18l7.71-35.32h-6.29h-1.03h-10.47H1081.56
				L1081.56,347.44z M1076.5,375.44l4.56-20.91l0.1-0.44h0.45h10.47h0.7l-0.15,0.68l-4.56,20.91l-0.1,0.44h-0.45h-10.47h-0.7
				L1076.5,375.44z"/>
			<path class="st0" d="M1114.85,347.44h-6.87l-7.71,35.32h6.87L1114.85,347.44L1114.85,347.44z M1130.43,361.78l-1.45,6.64h-16.45
				l1.45-6.64H1130.43L1130.43,361.78z M1133.56,347.44h-16.7l-1.45,6.64h16.69L1133.56,347.44z"/>
		</g>
		<g>
			<path class="st0" d="M1171.96,347.34h-6.93l-7.75,35.53h6.91l6.2-28.4l0.1-0.45h0.46h8.91l1.46-6.68h-8.66H1171.96
				L1171.96,347.34z M1162.93,347.34l-1.46,6.68h-10.25l1.46-6.68H1162.93z"/>
			<path class="st0" d="M1195.15,347.34h-6.91l-7.75,35.53h6.91l4.42-20.25L1195.15,347.34L1195.15,347.34z M1207.58,376.19
				l-1.46,6.68h-16.61l1.46-6.68H1207.58L1207.58,376.19z M1210.73,361.76l-1.46,6.68h-16.62l1.46-6.68H1210.73L1210.73,361.76z
				 M1213.88,347.34h-16.63l-1.46,6.68h16.63L1213.88,347.34z"/>
			<polygon class="st0" points="1226.25,347.34 1220.81,347.34 1213.06,382.87 1217.68,382.87 1220.43,382.87 1238.15,382.87 
				1239.61,376.19 1222.14,376.19 1221.43,376.19 1221.58,375.5 1226.17,354.47 1226.27,354.02 1226.73,354.02 1244.28,354.02 
				1245.73,347.34 1228.43,347.34 			"/>
			<path class="st0" d="M1259.58,347.34h-6.91l-7.75,35.53h6.91l3.05-13.98l0.1-0.45h0.46h11.98l1.46-6.68h-11.73h-0.7l0.15-0.69
				L1259.58,347.34L1259.58,347.34z M1281.04,347.34l-7.75,35.53h-6.91l7.75-35.53H1281.04z"/>
			<path class="st0" d="M1294.86,347.37h-6.9l-7.74,35.46h6.89L1294.86,347.37L1294.86,347.37z M1316.36,347.37l-7.74,35.46h-6.93
				L1293.6,363l3.3-15.09l7.9,20.8l4.65-21.33H1316.36z"/>
			<path class="st0" d="M1329.12,347.34h-5.85l-7.75,35.53h6.97h0.4h10.53h2.41h5.21l7.75-35.53h-6.33h-1.04h-10.53H1329.12
				L1329.12,347.34z M1324.04,375.5l4.59-21.03l0.1-0.45h0.46h10.53h0.7l-0.15,0.69l-4.59,21.03l-0.1,0.45h-0.46h-10.53h-0.7
				L1324.04,375.5z"/>
			<path class="st0" d="M1374.15,376.19h-15.68l-1.46,6.68h15.68L1374.15,376.19L1374.15,376.19z M1362.68,347.34l-7.75,35.53h-6.91
				l7.75-35.53H1362.68z"/>
			<path class="st0" d="M1393.3,347.34h-5.85l-7.75,35.53h6.97h0.4h10.53h2.41h5.21l7.75-35.53h-6.33h-1.04h-10.53H1393.3
				L1393.3,347.34z M1388.22,375.5l4.59-21.03l0.1-0.45h0.46h10.53h0.7l-0.15,0.69l-4.59,21.03l-0.1,0.45h-0.46h-10.53h-0.7
				L1388.22,375.5z"/>
			<path class="st0" d="M1426.78,347.34h-6.91l-7.75,35.53h6.9L1426.78,347.34L1426.78,347.34z M1440.93,375.5l-0.15,0.69h0.04
				l-1.46,6.68h-7.65h-10.52l1.46-6.68h10.76h0.46l0.1-0.45l1.46-6.67l0.15-0.69h-0.7h-7.95l1.46-6.68h8.2h7.37L1440.93,375.5
				L1440.93,375.5z M1447,347.34h-18.13l-1.46,6.68h18.13L1447,347.34z"/>
			<path class="st0" d="M1460.96,357.51l-3.75-10.04l-6.71,0l5.98,15.54L1460.96,357.51L1460.96,357.51z M1460.31,382.87h-6.87
				l3.82-17.5l15.22-18.03h7.26l-15.77,18.86L1460.31,382.87z"/>
		</g>
	</g>
</g>
<g>
	<path class="st0" d="M285.6,50.85c118.13,0,214.47,96.34,214.47,214.47c0,118.13-96.34,214.47-214.47,214.47
		c-118.13,0-214.47-96.34-214.47-214.47C71.12,147.19,167.47,50.85,285.6,50.85L285.6,50.85z M285.59,109.77
		c-85.68,0-155.55,69.88-155.55,155.55c0,85.67,69.88,155.55,155.55,155.55c85.67,0,155.55-69.88,155.55-155.55
		C441.14,179.65,371.27,109.77,285.59,109.77L285.59,109.77z M285.6,35.84c-126.39,0-229.48,103.08-229.48,229.48
		c0,126.39,103.09,229.48,229.48,229.48c126.39,0,229.48-103.09,229.48-229.48C515.07,138.93,411.99,35.84,285.6,35.84L285.6,35.84z
		 M285.6,45.8c-120.91,0-219.52,98.61-219.52,219.52c0,120.91,98.61,219.52,219.52,219.52c120.91,0,219.52-98.61,219.52-219.52
		C505.11,144.41,406.5,45.8,285.6,45.8z"/>
	<path class="st1" d="M150.88,173.57c-0.31,0.11-0.59,0.19-0.85,0.29c-2.38-1.59-2.73-1.72-2.73-4.67
		c-0.97-1.67-2.31-2.81-3.14-4.37c-1.45-1.58-3.45-3.97-4.98-5.14c-0.19,0.26-0.37,0.48-0.54,0.71c1.33,2.04,2.34,4.66,3.56,7.02
		c0.31,3.14-2.95,1.76-3.49,0.18c-0.71-0.96-1.22-2.23-1.81-3.23c-0.44-0.01-0.44-0.01-0.74,0.15c0.27,2.67,0.86,3.48,2.71,5.41
		c0.44,0.72,0.9,1.47,1.37,2.22c-0.44,1.47-1.47,2.17-2.52,1.85c-1.4-1.29-2.77-2.56-4.14-3.82c-1.26-1.65-2.79-4.72-4.07-5.86
		c-0.19,0.07-0.35,0.11-0.49,0.18c-0.48,1.76,0,4.62,1.15,6.12c2.58,2.39,6.61,6.59,7.37,10.51c0.76,1.3,0.76,1.3,1.12,2.14
		c2.03,2,2.02,4.37-0.97,4.66c-1.87-0.66-2.69-1.59-3.95-2.71c-2.37-1.3-3.83-3.4-5.87-5.08c-1.19-1.44-2.72-3.51-3.03-5.17
		c0.92-0.09,2.68,0.72,4.1,1.03c0.21,0.19,1.98,2,2.48,1.34c-0.22-1.43-3.02-5.3-4-6.32c-0.52-1.27-0.9-1.89-1.65-3.85
		c-0.65-2.39-0.89-5.27-0.8-7.76c-0.89-2.79-4.01-5.53-5.49-7.84c-2.14-2.09-2.45-1.56-0.79-3.75c1.55-0.39,3.98,1.01,5.96,1.35
		c0.63-0.54,1.98-1.38,3.19-1.26c1.05,0.74,1.05,0.74,1.35,0.77c0.39-0.51,0.51-0.74,0.48-1.58c1.06-3.3-1.31-8.69,2.76-10.22
		c2.06,0.41,3.3,1.79,4.36,3.88c2.93,3.23,2.93,3.23,3.5,4.07c5.03,3.76,10.23,7.19,15.13,11.55c1.45,1.81,1.37,3.22,0.21,5
		c-0.98,0.46-2.41-0.43-2.94-0.67c-1.7,0.35-3.57,0.93-5.01,1.07c-0.22,0.23-0.44,0.47-0.66,0.7
		C148.78,165.51,152.7,169.57,150.88,173.57L150.88,173.57z M150.13,157.8c-0.1-0.99-1.93-2.19-2.36-2.15
		c-1.73,1.7-2.24,2.43-4.23,2.28c-0.73,0.97,0.73,1.65,1.61,2.19C147.35,160.24,148.24,158.88,150.13,157.8L150.13,157.8z
		 M143.82,153.48c0.55-1.08,0.78-1.26-0.49-1.77c-3.44-2.68-6.14-5.32-9.1-8.1c-1.45,0.14-0.88,3.65-0.75,4.48
		c-0.39,0.7-1.3,1.66-1.05,2.21c0.32,0.05,0.67,0.07,1.04,0.11c2.85-1.28,4.46-0.99,7.22,1.47
		C141.57,153.19,141.98,153.55,143.82,153.48L143.82,153.48z M132.94,164.9c0.12-0.28,0.24-0.55,0.38-0.8
		c-0.31-1.66-0.16-2.57,0.19-4.22c0.79-0.39,0.78-0.45,2.1,0.01c2.21-1.8-2.72-6.23-3.95-7.33c-0.56-0.21-1.12-0.42-1.65-0.66
		c-0.18,0.18-0.33,0.32-0.49,0.47c0.09,0.7,0.19,1.41,0.31,2.13c-0.75,3.72,0.46,6.61,2.66,9.75c-0.01,0.13,0,0.24,0.01,0.34
		C132.63,164.72,132.79,164.81,132.94,164.9L132.94,164.9z M138.61,155.04c-0.09-0.89-0.99-1.41-1.44-1.52
		c-0.04,0.06-0.09,0.11-0.13,0.17C137.26,154.16,137.78,154.72,138.61,155.04L138.61,155.04z M119.73,168.4
		c0.23-0.66-0.69-2.52-0.82-2.88c-0.63-3.13-2.19-5.81-4.25-7.88c-3.27-1.48-4.79-1.83-6.26,1.29c0.73,3.12,4.56,3.15,6.89,4.98
		C116.38,165.08,117.98,167.93,119.73,168.4z"/>
	<g>
		<path class="st2" d="M238.35,214.72l-2.48,1.06l-0.5,2.13l2.43-0.86L238.35,214.72L238.35,214.72z M234.3,222.57l-0.45,1.94
			l2.44-0.9l0.48-2.07L234.3,222.57L234.3,222.57z M232.71,229.43l-0.43,1.84l2.44-0.9l0.47-2.01L232.71,229.43L232.71,229.43z
			 M231.14,236.2l-0.49,2.08l2.46-0.87l0.51-2.29L231.14,236.2L231.14,236.2z M251.36,230.77l2.97-1.1l-0.58,2.59l-3.14,1.5
			L251.36,230.77L251.36,230.77z M253.01,223.69l2.88-0.98l-0.55,2.43l-3.04,1.49L253.01,223.69L253.01,223.69z M254.53,217.03
			l2.82-1l-0.61,2.68l-2.96,1.45L254.53,217.03L254.53,217.03z M258.88,209.48l-0.59,2.61l-2.86,1.36l0.7-2.97L258.88,209.48
			L258.88,209.48z M260.36,202.89l-0.6,2.67l-2.78,1.32l0.68-2.9L260.36,202.89L260.36,202.89z M256.17,204.36l-0.72,3l-4.38,1.99
			l0.8-3.38L256.17,204.36L256.17,204.36z M253.76,214.13l-4.15,1.81l0.81-3.39l4.08-1.49L253.76,214.13L253.76,214.13z
			 M248.73,219.15l4.2-1.54l-0.73,3.1l-4.25,1.87L248.73,219.15L248.73,219.15z M247.07,225.97l4.22-1.54l-0.67,2.82l-4.27,1.99
			L247.07,225.97L247.07,225.97z M230.23,311.18c0.95,0.07,1.92,0.14,2.89,0.21c-53.65,8.18-106.25-22.99-47.14-71.46
			c19.43-15.93,41.11-24.84,64.34-33.4l-0.85,3.51l-0.31,0.12l-9.01,3.83l-0.64,2.54l9.17-3.39l-0.89,3.74l-9.22,3.93l-0.5,2.16
			l9.03-3.18l-0.85,3.54l-9.24,4.24l-0.5,2.16l8.92-3.12l-0.81,3.4l-9.18,4.33l-0.55,2.39l8.91-3.25l-0.88,3.62
			c-12.94,5.86-25.51,11.24-37.04,19.71C177.18,277.86,168.95,304.53,230.23,311.18L230.23,311.18z M245.4,232.91l-0.8,3.44
			l4.3-1.94l0.7-3.03L245.4,232.91z"/>
		<path class="st0" d="M331.54,300.84l2.48-1.06l0.5-2.13l-2.43,0.86L331.54,300.84L331.54,300.84z M335.59,292.98l0.45-1.94
			l-2.44,0.9l-0.48,2.07L335.59,292.98L335.59,292.98z M337.18,286.13l0.43-1.84l-2.44,0.9l-0.47,2.01L337.18,286.13L337.18,286.13z
			 M338.75,279.35l0.49-2.08l-2.46,0.87l-0.51,2.29L338.75,279.35L338.75,279.35z M318.54,284.78l-2.97,1.1l0.58-2.59l3.14-1.5
			L318.54,284.78L318.54,284.78z M316.88,291.86l-2.88,0.98l0.55-2.43l3.05-1.49L316.88,291.86L316.88,291.86z M315.36,298.52
			l-2.82,1l0.61-2.68l2.96-1.45L315.36,298.52L315.36,298.52z M311.01,306.08l0.59-2.61l2.86-1.36l-0.7,2.97L311.01,306.08
			L311.01,306.08z M309.53,312.67l0.6-2.67l2.78-1.32l-0.68,2.9L309.53,312.67L309.53,312.67z M313.72,311.19l0.72-3l4.38-1.99
			l-0.8,3.38L313.72,311.19L313.72,311.19z M316.13,301.43l4.15-1.81l-0.81,3.39l-4.08,1.49L316.13,301.43L316.13,301.43z
			 M321.16,296.4l-4.2,1.54l0.73-3.1l4.25-1.87L321.16,296.4L321.16,296.4z M322.83,289.58l-4.22,1.54l0.67-2.82l4.27-1.99
			L322.83,289.58L322.83,289.58z M339.67,204.37c-0.95-0.07-1.92-0.14-2.89-0.21c53.65-8.18,106.25,22.99,47.14,71.46
			c-19.43,15.93-41.11,24.84-64.34,33.4l0.85-3.51l0.31-0.12l9.01-3.83l0.64-2.54l-9.17,3.39l0.89-3.74l9.22-3.93l0.5-2.16
			l-9.03,3.18l0.85-3.54l9.24-4.24l0.5-2.16l-8.92,3.12l0.81-3.4l9.18-4.33l0.55-2.39l-8.91,3.25l0.88-3.61
			c12.94-5.86,25.51-11.24,37.04-19.71C392.71,237.69,400.95,211.02,339.67,204.37L339.67,204.37z M324.49,282.64l0.8-3.44
			l-4.3,1.94l-0.7,3.03L324.49,282.64z"/>
		<g>
			<path class="st2" d="M208.36,182.1l-1.67,7.54l61.42,7.07l-12.91,60.12c18.87-3.98,38.62-8.92,57.49-12.9
				c3.27-1.27,5.71-3.55,6.93-6.35l8.93-39.85c1.52-2.61,3.92-4.15,7.32-4.62l71.28,0.19l0.2-0.93l-19.54-10.26H208.36z"/>
			<path class="st0" d="M242.5,315.58l8.79-40.36c2.47-7.33,5.64-10.07,13.27-11.84c17.47-4.04,34.95-8.08,52.42-12.13l-14.55,67.58
				l61.05,7.08l-1.63,7.55H162.74l-0.19-0.88l18.4-9.72l50.98,0.19C236.88,323.07,240.83,320.29,242.5,315.58z"/>
		</g>
	</g>
	<path class="st0" d="M320.3,381.59h-13.79v-0.38c4.23-5.04,6.8-8.43,7.71-10.17c0.9-1.74,1.36-3.44,1.36-5.1
		c0-1.21-0.38-2.22-1.13-3.02c-0.75-0.8-1.66-1.2-2.75-1.2c-1.77,0-3.15,0.88-4.13,2.66l-0.64-0.22c0.62-2.21,1.56-3.85,2.83-4.91
		c1.27-1.06,2.73-1.59,4.39-1.59c1.19,0,2.27,0.28,3.25,0.83c0.98,0.55,1.75,1.31,2.3,2.27c0.55,0.96,0.83,1.86,0.83,2.71
		c0,1.53-0.43,3.08-1.27,4.67c-1.17,2.13-3.7,5.1-7.62,8.92h5.06c1.25,0,2.05-0.05,2.43-0.15c0.37-0.1,0.68-0.28,0.92-0.52
		c0.24-0.25,0.56-0.77,0.95-1.56h0.62L320.3,381.59L320.3,381.59z M291.57,358.14h10.97l-1.74,4.46h-9.23l-0.88,2.34
		c3.97,0.15,7.03,1.14,9.18,2.97c1.76,1.5,2.65,3.39,2.65,5.63c0,1.44-0.41,2.85-1.23,4.22c-0.82,1.38-1.97,2.44-3.46,3.18
		c-1.49,0.74-3.12,1.12-4.89,1.12c-1.92,0-3.39-0.36-4.41-1.07c-0.71-0.51-1.07-1.08-1.07-1.73c0-0.5,0.19-0.93,0.56-1.31
		c0.37-0.38,0.81-0.57,1.3-0.57c0.45,0,0.91,0.1,1.37,0.28c0.46,0.18,1.25,0.67,2.37,1.45c0.7,0.48,1.31,0.82,1.82,1
		c0.35,0.13,0.76,0.2,1.21,0.2c0.95,0,1.75-0.34,2.41-1.04c0.67-0.69,1-1.52,1-2.49c0-2.02-1.01-3.68-3.04-4.94
		c-2.03-1.27-4.58-1.91-7.68-1.91c-0.31,0-0.77,0.01-1.4,0.02L291.57,358.14L291.57,358.14z M277.72,370.69
		c0.12-1.29,0.18-2.42,0.18-3.4c0-2.09-0.24-4.05-0.73-5.86c-0.27-1-0.68-1.74-1.23-2.21c-0.28-0.25-0.66-0.38-1.12-0.38
		c-0.58,0-1.03,0.25-1.35,0.74c-0.45,0.68-0.68,1.98-0.68,3.9c0,3.19,0.38,5.39,1.14,6.6c0.5,0.79,1.16,1.17,2,1.17
		C276.39,371.25,276.98,371.07,277.72,370.69L277.72,370.69z M267.8,382.07v-0.48c1.91-0.44,3.53-1.09,4.86-1.94
		c1.33-0.86,2.39-1.91,3.16-3.16c0.78-1.26,1.33-2.7,1.63-4.34c-0.71,0.37-1.32,0.63-1.82,0.77c-0.5,0.14-1.03,0.21-1.58,0.21
		c-1.78,0-3.25-0.64-4.43-1.92c-1.19-1.28-1.78-3.03-1.78-5.25c0-1.55,0.33-2.96,0.96-4.25c0.64-1.28,1.55-2.28,2.74-2.99
		c1.19-0.71,2.42-1.06,3.7-1.06c1.37,0,2.67,0.4,3.89,1.18c1.22,0.78,2.2,1.92,2.93,3.4c0.72,1.49,1.08,3.18,1.08,5.08
		c0,2.47-0.59,4.83-1.77,7.09c-1.18,2.26-2.94,4.07-5.28,5.44C273.75,381.21,270.99,381.95,267.8,382.07L267.8,382.07z
		 M258.77,357.66v19.17c0,1.44,0.07,2.36,0.19,2.76c0.13,0.4,0.4,0.72,0.8,0.97c0.4,0.25,1.05,0.38,1.94,0.38h0.54v0.64h-12.34
		v-0.64h0.63c1,0,1.72-0.12,2.14-0.35c0.43-0.23,0.71-0.55,0.86-0.95c0.15-0.4,0.23-1.35,0.23-2.82v-12.15
		c0-1.09-0.05-1.76-0.16-2.03c-0.1-0.27-0.3-0.5-0.58-0.7c-0.28-0.19-0.61-0.28-0.97-0.28c-0.59,0-1.3,0.18-2.15,0.55l-0.31-0.63
		l8.62-3.94H258.77z"/>
	<path class="st3" d="M84.28,271.88l23.03-2.83l0,0l0.19,1.55l0.19,1.57l0,0l-9.44,1.16l0,0l1.48,12.02l0,0l9.44-1.16l0,0l0.19,1.55
		l0.19,1.57l0,0l-23.03,2.83l0,0l-0.19-1.55l-0.19-1.57l0,0l10.83-1.33l0,0l-1.48-12.02l0,0L84.66,275l0,0l-0.19-1.55L84.28,271.88
		L84.28,271.88z M100.01,311.71c-2.79,0.64-5.15,0.36-7.08-0.84c-1.94-1.21-3.23-3.2-3.87-6c-0.67-2.9-0.42-5.28,0.74-7.15
		c1.16-1.87,3.2-3.14,6.11-3.81l14.32-3.31l0,0l0.35,1.52l0.36,1.54l0,0l-14.09,3.25c-2.11,0.49-3.59,1.35-4.45,2.6
		c-0.86,1.25-1.07,2.82-0.63,4.73c0.44,1.91,1.32,3.23,2.64,3.97c1.32,0.74,3.03,0.87,5.14,0.38l14.09-3.25l0,0l0.35,1.52l0.35,1.54
		l0,0L100.01,311.71L100.01,311.71z M93.8,319.2l0.51,1.48l0,0l2.58,7.5c0.86,2.49,2.1,4.23,3.73,5.23c1.63,1,3.47,1.15,5.51,0.45
		c1.85-0.64,3.05-1.86,3.61-3.65c0.2-0.67,0.31-1.41,0.32-2.23l0,0c0.29,0.3,0.61,0.56,0.96,0.79c1.49,1,3.14,1.19,4.97,0.56
		c1.57-0.54,2.64-1.55,3.2-3.02c0.57-1.47,0.53-3.14-0.12-5.02l-2.81-8.16l0,0l-0.51-1.48l0,0L93.8,319.2L93.8,319.2z
		 M114.23,315.49l1.96,5.69c0.51,1.47,0.62,2.64,0.35,3.51c-0.27,0.86-0.96,1.48-2.06,1.86c-1.25,0.43-2.3,0.38-3.14-0.17
		c-0.84-0.54-1.53-1.63-2.09-3.24l-1.82-5.3l0,0L114.23,315.49L114.23,315.49z M105.02,318.66l2.01,5.83
		c0.61,1.77,0.77,3.17,0.49,4.19c-0.29,1.02-1.05,1.75-2.28,2.17c-1.42,0.49-2.59,0.45-3.52-0.12c-0.93-0.56-1.69-1.7-2.27-3.4
		l-2.08-6.04l0,0L105.02,318.66L105.02,318.66z M101.71,340.42L101.71,340.42l20.68-10.54l0,0l7.71,15.12l0,0l-1.24,0.63l-1.24,0.63
		l0,0l-6.28-12.32l0,0l-6.31,3.22l0,0l5.73,11.25l-1.24,0.63l-1.24,0.63l0,0l-5.73-11.25l0,0l-6.93,3.53l0,0l6.36,12.48l0,0
		l-1.24,0.63l-1.24,0.63l0,0L101.71,340.42L101.71,340.42z M112.25,360.21l0.79,1.37l0.78,1.35l0,0l20.1-11.6l0,0l-0.79-1.37
		l-0.78-1.35l0,0L112.25,360.21L112.25,360.21z M143.07,387.89c-2.22,1.8-4.47,2.58-6.74,2.35c-2.27-0.24-4.31-1.46-6.11-3.69
		c-1.87-2.31-2.7-4.56-2.47-6.75c0.23-2.19,1.5-4.23,3.82-6.1l11.42-9.25l0,0l0.98,1.21l0.99,1.23l0,0l-11.23,9.1
		c-1.68,1.36-2.63,2.79-2.86,4.28c-0.23,1.5,0.27,3.01,1.5,4.53c1.23,1.52,2.61,2.33,4.11,2.41c1.51,0.09,3.1-0.55,4.78-1.91
		l11.23-9.1l0,0l0.98,1.21l0.99,1.23l0,0L143.07,387.89L143.07,387.89z M142.4,399.56l12.91-13.85l0,0l0,0l-4.18,22l1.26,1.17
		l1.26,1.18l15.83-16.97l0,0l-1.11-1.03l-1.11-1.04l0,0l-12.86,13.79l0,0l0,0l4.37-21.71l0,0l-1.39-1.29l-1.38-1.28l0,0
		l-15.83,16.97l0,0l1.11,1.04L142.4,399.56L142.4,399.56L142.4,399.56z M158.57,413.87l14.92-17.78l0,0l1.2,1l1.21,1.01l0,0
		l-14.92,17.78l0,0l-1.2-1L158.57,413.87L158.57,413.87z M177.61,399.48l-6.39,23.85l1.39,0.97l1.38,0.97l20.23-14.16l0,0l-1.43-1
		l-1.43-1l0,0l-16.81,12.45l0,0l-0.02-0.01l5.93-20.07l0,0l-1.43-1L177.61,399.48L177.61,399.48L177.61,399.48z M184.62,432.08
		L184.62,432.08l11.25-20.3l0,0l14.84,8.23l0,0l-0.67,1.22l-0.67,1.22l0,0l-12.1-6.71l0,0l-3.43,6.2l0,0l11.05,6.12l-0.67,1.22
		l-0.67,1.22l0,0l-11.05-6.12l0,0l-3.77,6.8l0,0l12.25,6.79l0,0l-0.67,1.22l-0.67,1.22l0,0L184.62,432.08L184.62,432.08z
		 M204.56,442.42l1.47,0.57l1.46,0.56l0,0l3.59-9.35l0,0l6.96,2.67c1.4,0.54,2.31,1.21,2.7,2.02c0.4,0.82,0.36,1.9-0.12,3.26
		l-0.59,1.74c-0.31,0.93-0.57,1.78-0.78,2.56c-0.21,0.78-0.31,1.27-0.3,1.47l3.61,1.38l0.18-0.47c-0.34-0.37-0.54-0.73-0.57-1.07
		c-0.04-0.34,0.06-0.84,0.29-1.49l1.4-3.99c0.64-1.81,0.44-3.35-0.59-4.61l-0.39-0.42l0,0c0.44-0.07,0.87-0.17,1.29-0.32
		c1.66-0.59,2.85-1.83,3.58-3.73c0.74-1.93,0.7-3.62-0.11-5.08c-0.82-1.46-2.37-2.63-4.67-3.51l-8.62-3.31l0,0l-1.46-0.56l0,0
		L204.56,442.42L204.56,442.42z M212.05,431.66l2.81-7.33l0,0l7.03,2.7c1.43,0.55,2.37,1.25,2.81,2.08
		c0.44,0.83,0.42,1.88-0.06,3.12c-0.49,1.29-1.17,2.11-2.02,2.46c-0.86,0.35-1.97,0.27-3.32-0.25L212.05,431.66L212.05,431.66
		L212.05,431.66z M244.67,438.18L244.67,438.18c0.25-1.45-0.02-2.69-0.79-3.71c-0.78-1.03-1.99-1.77-3.65-2.21
		c-1.71-0.46-3.09-0.48-4.15-0.05c-1.06,0.43-1.76,1.28-2.1,2.54c-0.23,0.86-0.11,1.59,0.37,2.17c0.47,0.59,1.54,1.32,3.21,2.22
		l3.65,1.98c1.96,1.05,3.26,2.19,3.89,3.41c0.64,1.21,0.72,2.7,0.25,4.47c-0.54,2.03-1.75,3.44-3.61,4.21
		c-1.86,0.78-4.11,0.81-6.74,0.11c-2.93-0.78-5.03-2.08-6.31-3.9c-1.25-1.78-1.55-3.85-0.92-6.2l0.04-0.17l0,0l2.79,0.75l0,0
		c-0.38,1.64-0.13,3.05,0.76,4.24c0.89,1.19,2.35,2.05,4.36,2.59c1.86,0.5,3.36,0.56,4.5,0.17c1.14-0.38,1.87-1.19,2.2-2.43
		c0.29-1.08,0.19-1.96-0.31-2.65c-0.49-0.68-1.63-1.5-3.43-2.47l-3.66-1.97c-1.85-1-3.08-2.03-3.7-3.08
		c-0.62-1.06-0.73-2.33-0.33-3.8c0.57-2.14,1.76-3.65,3.55-4.52c1.79-0.86,3.93-0.96,6.41-0.3c2.52,0.67,4.36,1.84,5.52,3.5
		c1.16,1.66,1.49,3.61,0.99,5.86l0,0L244.67,438.18L244.67,438.18z M248.91,455.81l4.03-22.85l0,0l1.54,0.27l1.55,0.27l0,0
		l-4.03,22.85l0,0l-1.54-0.27L248.91,455.81L248.91,455.81z M263.98,458.25l2.49-20.27l0,0l-7.79-0.96l0,0l0.17-1.38l0.17-1.38l0,0
		l18.69,2.29l0,0l-0.17,1.38l-0.17,1.38l0,0l-7.79-0.96l0,0l-2.49,20.27l0,0l-1.55-0.19L263.98,458.25L263.98,458.25z
		 M285.44,450.22l-0.32,9.28l1.58,0.06l1.56,0.05l0.32-9.23l0,0l9.23-13.66l0,0l-1.81-0.06l-1.82-0.06l0,0l-7.06,11.02l-0.01,0.01
		l-6.26-11.49l0,0l-1.85-0.06l-1.83-0.06l0,0L285.44,450.22L285.44,450.22L285.44,450.22z M318.16,457.4
		c-3.31,0.64-6.2,0.06-8.67-1.75c-2.48-1.81-4.06-4.51-4.76-8.09c-0.7-3.59-0.24-6.69,1.38-9.3c1.62-2.61,4.08-4.23,7.38-4.88
		c3.32-0.65,6.22-0.06,8.69,1.75c2.47,1.81,4.06,4.52,4.75,8.11c0.7,3.59,0.24,6.68-1.37,9.29
		C323.96,455.13,321.48,456.75,318.16,457.4L318.16,457.4z M317.63,454.67c2.38-0.46,4.12-1.68,5.25-3.67
		c1.12-1.99,1.42-4.37,0.88-7.14c-0.54-2.78-1.71-4.88-3.49-6.3c-1.79-1.43-3.87-1.91-6.24-1.45c-2.37,0.46-4.11,1.69-5.23,3.68
		c-1.12,1.99-1.42,4.38-0.88,7.15c0.54,2.77,1.7,4.87,3.49,6.29C313.19,454.65,315.26,455.13,317.63,454.67L317.63,454.67z
		 M333.6,453.84l1.51-0.46l1.49-0.46l-3.09-10.1l0,0l10.82-3.31l0,0l-0.41-1.33l-0.41-1.33l-10.82,3.31l0,0l-2.07-6.78l0,0
		l12.36-3.78l0,0l-0.41-1.33l-0.41-1.33l0,0l-15.37,4.7l0,0L333.6,453.84L333.6,453.84z M365.17,443.39l-8.63-18.51l0,0l-7.11,3.32
		l0,0l-0.59-1.26l-0.59-1.26l0,0l17.07-7.96l0,0l0.59,1.26l0.59,1.26l0,0l-7.11,3.31l0,0l8.63,18.51l0,0l-1.42,0.66L365.17,443.39
		L365.17,443.39z M378.89,437.06l14.7-8.83l0,0l-0.72-1.19l-0.72-1.19l0,0l-12,7.21l0,0l-4.01-6.67l0,0l10.83-6.5l0,0l-0.72-1.19
		l-0.72-1.19L374.71,424l0,0l-3.65-6.07l0,0l11.86-7.12l0,0l-0.72-1.19l-0.72-1.19l0,0l-14.55,8.74l0,0L378.89,437.06L378.89,437.06
		L378.89,437.06z M408.34,407.42L408.34,407.42c1.4,2.52,1.88,4.98,1.42,7.36c-0.45,2.38-1.77,4.39-3.97,6.05
		c-2.56,1.93-5.26,2.58-8.1,1.96c-2.84-0.62-5.39-2.42-7.64-5.4c-2.25-2.98-3.25-5.95-3.01-8.91c0.24-2.96,1.69-5.44,4.35-7.44
		c2.1-1.58,4.22-2.34,6.38-2.27c2.15,0.06,4.08,0.94,5.77,2.63l0,0l-2.42,1.83l0,0c-1.16-1.05-2.44-1.57-3.85-1.55
		c-1.41,0.01-2.82,0.55-4.24,1.62c-1.86,1.4-2.82,3.2-2.89,5.39c-0.07,2.19,0.76,4.45,2.5,6.76c1.85,2.46,3.77,3.94,5.76,4.46
		c1.99,0.52,3.95,0.04,5.89-1.42c1.44-1.08,2.3-2.42,2.58-4.03c0.28-1.6-0.04-3.33-0.95-5.2l0,0L408.34,407.42L408.34,407.42z
		 M416.95,411.57l1.15-1.08l1.14-1.07l0,0l-7.44-7.98l0,0l8.86-8.26l0,0l7.44,7.98l0,0l1.15-1.08l1.14-1.07l0,0l-15.83-16.97l0,0
		l-1.15,1.08l-1.14,1.07l0,0l6.49,6.96l0,0l-8.86,8.26l0,0l-6.49-6.96l0,0l-1.15,1.08l-1.14,1.07l0,0L416.95,411.57L416.95,411.57z
		 M436.53,392.51L436.53,392.51l-0.95,1.18l-0.96,1.18l0,0l-18.04-14.6l0,0l1.18-1.46l1.19-1.47l0,0l21.96,2.84l0,0l0,0
		l-14.66-11.87l0,0l0.96-1.18l0.95-1.18l0,0l18.03,14.6l-1.08,1.34l-1.08,1.34l-22.23-2.63l0,0l0,0L436.53,392.51L436.53,392.51z
		 M455.65,367.97c1.89-2.81,2.49-5.7,1.79-8.68c-0.7-2.98-2.57-5.49-5.59-7.54c-3.03-2.05-6.07-2.84-9.1-2.37
		c-3.03,0.46-5.49,2.1-7.38,4.91c-1.88,2.79-2.47,5.68-1.77,8.67c0.7,2.99,2.57,5.51,5.6,7.55c3.03,2.04,6.06,2.83,9.09,2.36
		C451.31,372.39,453.76,370.76,455.65,367.97L455.65,367.97z M463.7,354.46L463.7,354.46l-21.03-9.81l0,0l0.66-1.42l0.67-1.43l0,0
		l18.51,8.63l0,0l4.97-10.66l0,0l1.26,0.59l1.26,0.59l0,0L463.7,354.46L463.7,354.46z M475.92,328.29
		c-1.15,3.16-3.14,5.34-5.96,6.53c-2.82,1.19-5.96,1.16-9.39-0.09c-3.44-1.25-5.86-3.24-7.26-5.97c-1.4-2.73-1.53-5.68-0.38-8.84
		c1.16-3.18,3.15-5.37,5.98-6.55c2.83-1.18,5.96-1.15,9.4,0.1c3.43,1.25,5.85,3.24,7.25,5.96
		C476.96,322.16,477.08,325.11,475.92,328.29L475.92,328.29z M473.31,327.34c0.83-2.27,0.68-4.4-0.44-6.39
		c-1.12-1.99-3.01-3.46-5.66-4.43c-2.66-0.97-5.06-1.05-7.2-0.25c-2.14,0.8-3.63,2.33-4.46,4.61c-0.83,2.27-0.67,4.39,0.46,6.38
		c1.13,1.99,3.02,3.47,5.68,4.44c2.65,0.97,5.05,1.05,7.19,0.25C471,331.14,472.49,329.61,473.31,327.34L473.31,327.34z
		 M483.29,303.7c0.65-3.04,0.07-5.72-1.73-8.05l-0.16-0.22l0,0l3.01-0.13l0.41-1.91l-12.01-2.55l-2.11,9.93l2.59,0.55l1.51-7.11l0,0
		l0.28,0.06c0.65,0.14,1.32,0.37,2,0.69c0.69,0.32,1.2,0.65,1.55,0.98c0.25,0.25,0.5,0.52,0.72,0.8c1.4,1.8,1.85,3.87,1.36,6.2
		c-0.51,2.41-1.71,4.1-3.61,5.08c-1.9,0.98-4.32,1.15-7.28,0.52c-2.78-0.59-4.88-1.75-6.3-3.48c-1.42-1.73-1.9-3.71-1.43-5.92
		c0.4-1.88,1.13-3.31,2.2-4.31c1.07-1,2.38-1.48,3.94-1.45l0,0l0.63-2.97l0,0c-2.24-0.15-4.24,0.51-6.01,2.01
		c-1.77,1.49-2.92,3.48-3.44,5.96c-0.68,3.21-0.13,6.05,1.65,8.5c1.78,2.46,4.46,4.06,8.04,4.82c3.57,0.76,6.67,0.4,9.28-1.08
		C480.98,309.16,482.62,306.85,483.29,303.7L483.29,303.7z M477.35,279.96L477.35,279.96l-14.76,7.26l0,0l0.19-1.82l0.19-1.84l0,0
		l11.9-5.45l-0.01-0.01l-10.5-7.82l0,0l0.19-1.81l0.19-1.81l0,0l12.98,10.16l0,0l9.19,0.97l-0.16,1.55l-0.17,1.57L477.35,279.96z"/>
	<path class="st4" d="M453.34,366.41c-1.35,2-3.16,3.13-5.43,3.39c-2.26,0.26-4.57-0.4-6.91-1.98c-2.35-1.58-3.82-3.48-4.44-5.68
		c-0.61-2.2-0.25-4.3,1.1-6.3c1.36-2.01,3.17-3.14,5.44-3.39c2.27-0.26,4.58,0.4,6.93,1.99c2.34,1.57,3.81,3.47,4.42,5.66
		C455.06,362.3,454.69,364.4,453.34,366.41z"/>
	<path class="st1" d="M185.54,137.21c-2.96,1.2-4.36,1.75-4.63-1.63c1.83-3.84,2.8-9.67,3.16-14.12c-2.24-4.31-4.75-7.43-7.59-10.96
		c-0.77-1.52-4.12-9.94-5.94-9.71c-1.65-1.94-2.1-2.78,0.05-4.61c4.91-1.48,8.02,5.17,8.61,9.35c2.26,5.89,6.16,10.96,10.22,16.16
		c0.62,1.17,1.23,5.12-1.1,4.13c-0.2-0.42-0.2-0.42-1.06-1.43c-0.26,0.01-0.26,0.01-0.96,0.56c0.19,3.34,0.73,8.2-0.04,11.36
		C185.99,136.62,185.76,136.91,185.54,137.21L185.54,137.21z M194.78,119.39c1.43-1.38,3.48-3.77,4.53-5.72c1.51-1.34,4.25-2.93,2-5
		c-0.61,0.09-0.61,0.09-2.34,0.88c-1.01,0.87-1.57,2.4-2.62,2.66c-1.08-1.26-0.82-2.33-1-3.66c-1.11-2.61-1.43-3.3-0.3-5.96
		c0.01-0.49,0.01-0.49,0.8-3.18c-0.23-0.71-0.44-1.38-0.61-2.08c-1.28-0.56-1.58,0.02-2.5,0.06c-0.11-0.12-0.18-0.22-0.26-0.31
		c0.78-4.01-1.87-5.31-4.39-6.83c-4.16,0.42-2.57,3.15-0.97,5.72c0.22,1.51,0.51,3.02,0.79,4.54c0.47,1.62,0.58,3.17,0.97,4.75
		c-0.57,1.33-1.13,2.66-1.66,3.97c0.23,0.33,0.13,0.53,0.74,0.8c2.83-1.3,3.33,1.41,3.67,3.99
		C191.18,116.03,191.6,120.08,194.78,119.39L194.78,119.39z M180.32,130.66c0.22-0.24,0.47-0.51,0.75-0.74
		c0.21-2.62,0.97-5.66,1.37-8.24c-1.45-2.7-3.21-3.32-5.69-2.06c-2.58,2.2-2.22,4.87,1.56,4.89
		C179.73,125.1,178.75,129.13,180.32,130.66L180.32,130.66z M237.01,101.87c-2.02,0.3-5.67,0.32-6.84-0.61
		c-0.82-3.91,0.8-3.31,4.11-4.39c1.31-0.31,2.62-0.62,3.96-0.94c1.47-1.05,3.89-2.46,4.85-4.23c0.07-0.05,0.17-0.12,0.28-0.18
		c-0.2-0.94,1.29-2.47,1.95-3.27c1.12-3.3,3.11-6.38,4.9-9.27c-0.06-0.26-0.07-0.53-0.08-0.77c-0.42,0.05-0.84,0.1-1.26,0.18
		c-2.18,1.04-8.1,3.73-10.05,1.9c-2.75-4.73,3.79-5.19,6.99-5.86c2.76-1.24,5.76-2.5,9.15-3.21c2.47,0.15,3.49,3.16,3.51,5.55
		c-1.37,1.54-3.25,3.07-4.46,4.62c-0.7,1.36-4.34,7.42-3.34,8.86c0.7-0.22,1.4-0.45,2.11-0.64c2.75-1.87,6.13-3.56,7.15,1.34
		c-0.34,1.37-2.41,1.8-3.43,2.21c-4.36,1.14-7.69,2.47-11.28,4.83C242.38,99.38,239.76,100.95,237.01,101.87L237.01,101.87z
		 M308.23,104.75c-1.81-1.67-1.13-1.77-0.61-3.79c2.15-0.64,2.15-0.64,4.85-1.16c1.59-0.68,3.16-1.32,4.78-1.95
		c0.91-0.58,2.26-0.57,2.31-1.92c-1.14-0.25-1.55-0.22-4.73-0.91c-0.37-0.57-0.7-1.1-1.04-1.62c0.86-2.65,3.18-2.14,5.81-2.51
		c-0.35-1.43-0.97-1.03-1.78-1.25c-1.5-1.03-0.72-1.96-0.53-3.03c0.74-0.74,2.96,0.19,3.27-1.26c-1.95-1.04-1.2-3.55-0.62-4.86
		c-1.5-0.86-2.72-0.35-4.03,0.39c-0.58,0-1.15,0-1.69,0.04c-3.48,1.99-9.52-0.03-7.3-4.18c1.94-0.97,3.96-0.24,6.3,0.14
		c2.7-0.31,5.67-0.94,8.51-1.18c1.03-0.6,1.91-3.28,0.89-3.13c-0.38,0.41-0.67,1-1.03,1.33c-2.79-0.03-3.25-0.18-4.73-2.02
		c0.75-4.39,0.78-4.35,5.06-3.41c3.12-0.92,3.19-4.27,3.88-6.83c0.68-0.84,1.24-0.8,2.37-0.67c1.65,2.04,1.92,2.31,1.42,5.32
		c-0.36,0.7-0.83,1.38-0.56,2.55c0.89-0.67,4.88-4.11,5.8-2.68c-0.06,0.48-0.13,0.96-0.19,1.44c-0.27,0.11-0.54,0.21-0.77,0.32
		c-0.13,0.59-0.99,2.66-0.71,3.42c0.36-0.54,0.36-0.54,1.12-2.67c0.13-0.05,0.3-0.06,0.47-0.06c1.01-2.74,1.44-5.11,2.43-7.56
		c2.65-2.17,4.25,1.59,4.13,4.23c-0.15,0.3-0.3,0.63-0.46,0.97c-1.07,1.12-4.93,6.4-3.8,8.17c1.34,0.09,3.27-0.11,4.68,0.77
		c1.16,2.8,2.14,6.59-2.45,5.58c-1.11-0.94-3.94-3.94-5.11-3.5c-0.11,0.31-0.18,0.66-0.26,1.01c1.3,1.19,1.99,3.51,0.18,5.21
		c-0.62,0.19-1.24,0.43-1.87,0.66c-0.08,0.35-0.16,0.75-0.21,1.15c0.87,2.61-1.76,2.41-2.89,3.81c1.81,1.67,3.45-0.4,2.35,3.51
		c-2.04,0.87-5.02,0.59-6.42,1.93c-0.9,3.38-1.76,6.76-2.63,10.15c-1.19,1.5-3.59,1.39-4.31-0.2c0.01-1.56-1.06-2.66-1.84-3.03
		c-2.17,0.55-4,2.7-6.06,3.48C309.52,104.87,308.88,104.81,308.23,104.75L308.23,104.75z M330.79,106.23
		c2.37,0.06,2.84-3.04,2.28-4.6c-0.37-0.57-0.74-1.15-1.1-1.72c-1.85-1.1-4.82-2.78-6.44-1.37
		C326.59,100.63,328.71,104.67,330.79,106.23L330.79,106.23z M324.48,84.89c0.17-0.04,0.35-0.09,0.52-0.13
		c0.07-0.15,0.15-0.3,0.22-0.44c-0.15-0.07-0.3-0.11-0.46-0.14c-0.15,0.13-0.31,0.26-0.42,0.4
		C324.37,84.66,324.43,84.75,324.48,84.89L324.48,84.89z M325.44,84.28c1.03-0.02,3.5-1.54,3.73-2.59
		c-0.16-0.03-0.31-0.07-0.48-0.06c-0.06,0.07-0.12,0.18-0.15,0.3C327.35,82.11,325.73,82.94,325.44,84.28L325.44,84.28z
		 M325.59,79.79c1.42-0.1,2.91-0.92,4.47-1.45c0.04-0.2,0.08-0.35,0.11-0.51C329.07,77.63,324.03,77.36,325.59,79.79L325.59,79.79z
		 M327.6,74.36c0.26-0.07,0.52-0.13,0.81-0.15c-0.47-0.1-0.9-0.2-1.33-0.29C327.26,74.04,327.43,74.2,327.6,74.36L327.6,74.36z
		 M329.6,74.63c0.14-0.05,0.27-0.11,0.44-0.11c-0.27-0.06-0.55-0.12-0.78-0.17C329.36,74.41,329.46,74.52,329.6,74.63L329.6,74.63z
		 M370.3,116.47c-0.89-1.08-0.69-2.62,0.7-2.02c0.06-0.07,0.1-0.12,0.14-0.16c1.61,0.64,3.74,1.02,5.59,1.44
		c1.82-0.44,6.08-0.43,7.12-1.97c-0.49-0.86-2.89-0.81-3.58-0.88c-2.33,0.36-3.57-1.92-3.57-3.72c1.59-1.18,2.87,0.12,4.68,0.01
		c1.84,1.05,6.12,2.54,8.41,1.94c3.53-2.27,8.38-6.13,9.49-10.21c0.95-1.21,1.51-1.93,2.85-2.12c1.66,1.39,1.1,1.78,1.79,3.69
		c-0.09,0.71-1.9,2.8-2.55,3.48c-2.38,1.74-4.52,3.86-6.84,5.95c0.19,0.92,0.44,0.73,1.62,0.77c1.46,0.38,2.34,0.95,3.21-0.54
		c0.13-0.05,0.28-0.08,0.44-0.12c1.1,0.89,2.7,1.44,3.8,2.42c-0.11,0.36-1.23,2.05-2.03,2.1c-2.2-0.49-4.92-0.64-7.12-0.75
		c-1.86-0.36-1.86-0.36-3.11-0.42c-0.2,0.37-0.2,0.37-0.22,0.86c0.97,2.12-0.8,5.2-0.28,8.05c-0.01,2.42,0.54,3.92,2.12,6.15
		c1.04,1.09,2.12,2.09,2.71,3.79c-0.18,0.26-0.37,0.51-0.55,0.76c-3.42-1.24-7.16-3.55-9.02-6.5c-0.1-1.68-0.09-2.26,0.52-3.27
		c0.47-2.6,1.27-4.78,1.85-6.94c-0.05-0.8-0.05-0.8,0.15-1.87c-1.05-0.94-1.54,0.27-2.79,0.45c-2.39,1.14-4.71,1.77-7.43,2.37
		c-3.24,1.57-5.24-0.38-7.46-2.35C370.75,116.71,370.52,116.59,370.3,116.47L370.3,116.47z M420.65,174.38
		c-0.33-1.15-0.75-4.17-0.61-4.78c0.27-0.26,0.52-0.5,0.78-0.71c0.29,0.04,0.57,0.08,0.86,0.11c1.15,2.3,2.23,5.95,4.64,7.75
		c1.53,2.01,3.07,0.64,4.65-0.53c1.1-1.09,2.18-2.16,3.25-3.24c-0.59-2.39-7.11-4.74-9.27-6.01c-0.71-0.91-1.44-1.8-2.18-2.69
		c-0.16-0.95-0.25-1.29-0.59-1.9c0.18-0.82,1.63-1.29,2.14-1.18c1.03,0.66,1.92,1.59,2.92,2.27c2.29,0.92,3.9,1.74,5.87,3.47
		c1.44,0.89,2.92,2.27,4.29,3.46c0.74-0.07,2.77,2.72,3.39,3.63c1.01,0.76,1.41,1.95,2.92,2.62c0.27,0.36,0.27,0.36,0.5,1
		c-1.53,1.67-3.49,1.55-5.26-0.01c-1.02-3.69-3.71-0.89-5.78,0.41c-0.29,0.44-0.56,0.92-0.82,1.4c-1.38,0.87-4.59,3.69-6.54,2.95
		C424.11,179.73,422.38,177.05,420.65,174.38L420.65,174.38z M425.47,156.45c0.72,0.73,1.83,2.48,2.26,2.95
		c1.46,0.65,2.91,1.35,4.36,2.06c1.94,1.4,4.99,2.01,7.39,2.55c1.54,0.78,1.54,0.78,3.86,2.29c1.33,0.38,4.84,2.67,5.18,4.52
		c-0.43,0.01-0.89,0.04-1.34,0.1c-2.45-0.77-3.93-1.23-6.64-1.5c-0.89-0.44-1.46-0.65-2.01,0.57c0.47,0.54,1.01,0.76,1.86,0.93
		c1.49,0.77,3.17,1.76,4.92,2.1c1.35,0.55,4.61,2.73,5.9,2.4c5.41-2.94,0.33-6.47-3.18-8.15c-0.32-0.5-0.61-0.97-0.91-1.44
		c0.04-0.07,0.09-0.14,0.1-0.19c1.43,1.02,3.13,1.22,4.62,2.11c1.78,2.68,2.47,3.91,5.98,4.19c1.16-0.25,2.37-0.27,3.27-0.58
		c1.05,0.21,1.05,0.21,3.4,0.26c1.81-0.18,3.61-0.44,5.3,0.07c1.72-0.74,3.36-2.52,2.96-4.11c-0.82-1.58-1.96-3.18-3.01-4.27
		c-0.42-0.26-6.09-2.85-4.16-3.32c1.27,0.77,2.42,0.57,3.43-0.81c0.65-3.96-3.16-3.69-5.96-3.54c-3.25-0.44-3.54-1.17-5.19-3.77
		c0.18-1.38,0.47-1.83,0.16-2.73c0.04-2.08-0.08-3.1-1.05-4.63c-0.84,0.05-1.17,0.08-1.9,0.94c-0.83,2.71-3.26,5.43-5.61,7.75
		c-0.32,0.6-0.66,1.03-1.47,1.63c-0.98,0.31-2.48-0.18-2.99-1c1.29-1.43,2.6-2.87,3.15-4.36c-0.12-0.4-0.93-1.69-1.42-2.25
		c-0.2-0.05-0.2-0.05-1.16,0.38c-1.5,2.83-5.11,4.45-7.69,6.74c-0.75,3.32,1.7,2.91,4.39,2.52c2.66,0.2,3.15-0.63,4.14,1.85
		c1.38,0.53,2.53-0.85,3.9-0.54c1.23-0.47,1.28-0.68,2.16,0.43c-0.74,1.95-3.33-0.91-4.37,1.4c0.48,0.75,1.89,1.61,2.7,2.41
		c2.56,0.79,1.06,2.65-1.51,1.91c-2.96-1.5-6.36-2.51-9.06-4.08c-2.65-1.08-5.11-3.03-7.61-3.59
		C431.8,156.22,424.73,151.89,425.47,156.45L425.47,156.45z M442.57,163.16c0.42,0.52,0.65,0.55,2.09,1.79
		c0.61,0.27,1.19,0.21,1.66,0.96c0.07-0.09,0.15-0.18,0.22-0.27c-1.04-1.92-1.89-2.44-3.86-2.64
		C442.66,163.01,442.61,163.08,442.57,163.16L442.57,163.16z M455.58,165.31c0-0.22,0.01-0.4,0.03-0.59
		c0.32-0.12,0.63-0.18,0.94-0.24c0.11,0.11,0.19,0.23,0.29,0.39C456.6,165.06,456.01,165.52,455.58,165.31L455.58,165.31z
		 M459.42,168.14c0.42-0.58,0.82-1.13,1.23-1.65c0.02-1.85,0.07-4.95,2.29-4.9c0.56,0.74,1.68,1.34,2.62,2.07
		c0.75,1.06,2.98,2.23,2.84,3.81c-1.54,1.72-6.22,1.17-8.5,1.3C459.76,168.53,459.59,168.33,459.42,168.14z"/>
</g>
</svg>
