<svg version="1.1" id="图层_1" xmlns="http://www.w3.org/2000/svg" x="0" y="0" viewBox="0 0 2144 530.6" style="enable-background:new 0 0 2144 530.6" xml:space="preserve"><style>.st0{fill:#0067ab}.st0,.st1,.st2{fill-rule:evenodd;clip-rule:evenodd}.st1{fill:#fff}.st2{fill:#00aeef}</style><path class="st0" d="M688.6 356.8c-1.6-1.1-3-2.1-4.4-3-1-16.8-1.6-19 12.2-29.5 4.4-10.5 5-20.9 9.4-30.3 2.3-12.4 6.4-30.3 6.5-41.7H707c-4.9 13.5-13.6 27.6-20.4 41.7-13.6 12.6-18.8-7.6-13.3-15.8 2-6.7 6.1-13.7 8.8-20-1.5-2.1-1.5-2.1-3.3-3-11.6 10.7-13.3 16.4-15.8 32-1.8 4.6-3.7 9.5-5.6 14.3-8.5 3.2-15.4.8-17.7-5.3 1.1-11.2 2.2-22.1 3.3-33.1 3.3-11.8 12.3-29.9 13.1-40-1-.6-1.8-1.3-2.6-1.7-10 4-21.7 16.4-24.7 27.2-2.1 20.6-7.5 54.5-23.2 72-3.4 8.2-3.4 8.2-6.1 12.8-2.2 16.6-13.4 25.1-25.4 12-3.5-11.2-2.1-18.3-1.3-28.2-2.3-15.8 2.4-30.1 3-45.7 2.5-10.7 6.9-25.3 13.5-32.7 3.7 4 6.2 15.2 9.8 23-.1 1.7-2.4 16.4 2.5 16.4 6-6.1 14.2-33.1 15.5-41.3 4.1-7 5.7-10.9 12.2-21.5 8.9-11.6 21.6-23 33.7-31.4 10-14.1 11.7-38.5 17.3-53.7 2.2-17.5-1.4-17.1 14.8-17.1 7.3 5.9 9.4 22.3 14.9 32.8 4.8 1.1 13.5 4.4 17.3 10.5.2 7.6.2 7.6 1.2 9 3.8 0 5.3-.2 9.1-3.4 19.3-6.7 36.2-37.1 57.9-23.4 5.4 11.2 3.3 21.9-2.7 34.3-4.7 25.3-4.7 25.3-6.7 31 .2 37.1 2.6 73.7-.5 112.2-3.4 13.3-10.3 17.9-22.8 18.7-5.7-3-6.6-12.8-7.3-16.2-7.7-6.7-17-13.5-22.8-19.8-1.9-.2-3.8-.4-5.6-.6-8.1 20-13.2 52.8-38.5 58.5zm71.5-59.6c4.3-4 3.4-16.8 1.7-18.7-14.2-2.1-19.4-1.9-25.8-11.8-7.2 0-5.2 9.3-4.6 15.4 7.3 10.7 16.9 10.1 28.7 15.1zm-2.1-45c7.1-1.3 8.7-.8 6.6-8.6.4-25.7 3.2-47.8 5.7-71.6-5.8-6.3-20.3 8.9-23.7 12.4-4.7.6-12.4-.2-14.1 3 .9 1.7 2 3.4 3.2 5.3 16.1 8.9 20.5 17.5 18.8 39.2-3.2 8.7-3.4 11.8 3.5 20.3zm-92.5-10.6c1.7-.4 3.4-.8 5.1-1.1 6.7-7.4 11.5-9.9 20.5-14.1 4.7 2.3 4.9 2.1 7.4 9.9 16.3 4 19.6-35 20.4-44.7-1-3.4-2-6.7-2.8-10.1-1.5-.2-2.7-.4-4-.6-3 3-6 5.9-8.9 9-20.1 9.7-29.4 25.7-36.4 47.2-.7.4-1.1.8-1.6 1.3.1 1.1.2 2.2.3 3.2zm66.6-8.4c3.9-3.6 3.1-9.7 2-12.2h-1.3c-1.4 2.7-2.2 7.1-.7 12.2zm-130-41.3c3.9-1.3 9.4-12.2 10.6-14.1 12.5-14.1 19.5-31 21.9-48-4.7-20.6-8.4-29.1-28.3-24.9-12.1 14.5 1.4 32.7 1.1 50.1-1.6 9.3-9.4 27-5.3 36.9zm795.8 164.9c-11.2-6.5-7.8-7.8-7.4-18.7 10.3-5.7 10.3-5.7 23.6-11.4 7.4-5.3 14.7-10.3 22.3-15.4 4-4 10.9-5.5 9.7-12.4-6.1 0-8.2.6-25.3.6l-7.2-7.2c1.5-14.5 13.9-14.5 27-19.4-3.4-7-6.1-4.2-10.5-4.4-8.9-3.6-5.9-9.3-6.1-14.9 3-4.6 15.4-2.3 15.4-10.1-11.2-3.2-10.1-16.8-8.6-24.2-8.6-2.7-14.3 1.3-20.2 6.5-3 .6-5.9 1.3-8.6 2.1-15.6 14.1-48.9 10.5-42.1-13.3 8.9-7.2 20-5.7 32.4-6.3 13.5-4.6 28-11.2 42.3-15.6 4.6-4.2 6.1-19 1.1-17.1-1.5 2.5-2.3 5.9-3.8 8-14.3 3-16.8 2.7-26.5-5.1-1.1-23.4-.8-23.2 22.1-23.2 14.9-8.2 11.6-25.5 12.2-39.4 2.5-5.1 5.5-5.5 11.4-6.1 10.7 8.6 12.4 9.7 13.3 25.7-1.1 4-2.7 8 0 13.7 3.8-4.4 20.4-26.5 26.8-20.2.2 2.5.4 5.1.6 7.6-1.3.8-2.5 1.7-3.6 2.5 0 3.2-2.1 14.7.2 18.3 1.3-3.2 1.3-3.2 2.7-14.9.6-.4 1.5-.6 2.3-.8 2.1-15.2 1.7-27.8 4-41.5 11.2-14.1 23.6 3.4 25.9 17.1-.4 1.7-.8 3.6-1.3 5.5-4.2 7-18.1 38.3-10.3 46.1 7-1.1 16.6-4.2 24.9-1.3 9 13.1 18.3 31.4-6.3 31.4-6.7-3.6-24.6-15.8-30.1-12.2-.2 1.7-.2 3.6-.2 5.5 8 4.6 14.1 15.8 6.7 26.5-3 1.7-5.9 3.6-8.9 5.5 0 1.9 0 4 .2 6.1 7.4 12.4-6.3 14.3-10.5 22.7 11.2 6.5 17.3-5.9 16 15.4-9.5 6.7-25.1 8.6-30.8 17.1-.8 18.3-1.5 36.6-2.1 55-4.4 9-16.8 11.2-22.3 3.8-1.7-8-8.4-12.4-12.8-13.5-10.5 5.3-17.5 18.3-27.2 24.6-3.7.5-7.1.9-10.4 1.3zm117.3-17.7c12.2-2.3 11.2-18.7 6.5-26.1l-7.6-7.6c-10.7-3.6-27.8-8.9-34.5.2 7.8 9.5 23.1 27.8 35.6 33.5zm-56.3-102.3c.8-.4 1.7-.8 2.5-1.3.2-.8.4-1.7.6-2.5-.8-.2-1.7-.2-2.5-.2-.6.8-1.3 1.7-1.7 2.5.3.4.7.8 1.1 1.5zm4.3-4.2c5.3-1.3 16.2-11.8 16.2-17.5-.8 0-1.7 0-2.5.2-.2.4-.4 1.1-.4 1.7-6 2.3-13.3 8.4-13.3 15.6zm-4.3-23.2c7.2-2.1 13.9-8 21.3-12.4v-2.7c-5.9.1-32 4.4-21.3 15.1zm4.3-30.1c1.3-.6 2.5-1.3 4-1.7h-7.2c1 .4 2.1 1.1 3.2 1.7zm10.5-.9c.6-.4 1.3-.8 2.1-1.1h-4.2c.6.3 1.2.7 2.1 1.1zM1934.8 356c-6.4-1.9-21.8-9-24.2-11.6-.3-2.1-.6-4-.7-5.9 1.1-1.3 2.3-2.5 3.4-3.8 14.5 1.5 35 7.4 51.3 1.3 14.4-1.3 13.2-12.8 13-24-1.4-8.6-2.8-17.1-4.2-25.5-13-4.4-45.6 19.8-58.6 26.3-6.6.6-13.1 1.5-19.7 2.3-4.9-2.1-6.8-2.7-10.8-3-3.2-3.4-.6-11.8 1.6-13.9 6.5-3 13.7-4.4 20.2-7.2 11.9-8.2 21-13.5 35.6-17.7 8.9-4.2 20.2-7.2 30.3-10.1 2.1-3.8 21.8-5.1 28.1-5.3 6.9-2.5 13.7-.8 21.8-6.1 2.5-.2 2.5-.2 6.3.6 2.7 12.4-4.4 21.5-17.5 25.3-20.5-6.3-16.4 15.2-17.3 29.1 1.1 2.7 2.4 5.5 3.7 8.2-.5 9.3 1.9 33.3-8 40.4l-54.3.6zm-67.2-77.7c5.8-1.3 17.6-1.3 21.2-1.9 7.9-5.1 15.9-9.9 24-14.7 12.9-5.1 25.9-17.9 36.3-27.8 8.7-5.1 8.7-5.1 23.4-11.6 6.2-5.3 28.5-15.2 38.1-11.2-1.4 2.1-2.8 4.4-4 6.7-11.7 9.5-18.8 15.2-28.9 27.4-5 3-7.9 5.1-4 11.4 4-.6 6.9-2.5 10.5-6.1 8.5-4.8 18.7-9.9 26.1-17.3 7-4.8 28-13.9 30.7-21.1 4.3-35-28.9-21.3-48.3-9.5h-9.7c-.2-.4-.4-.8-.6-1.1 9.5-3.8 16-11.4 25.1-15.8 18.3-.4 26.3 0 39.2-16 2.7-6.3 6.6-12.2 8.2-17.5 4.5-4.4 4.5-4.4 12.5-15.6 5.2-9.3 9.9-18.7 17.9-25.3 2.3-10.5-.5-23.8-9.2-26.8-10.1-.8-21.3-.2-29.8 1.5-2.6 1.3-33.4 20.6-29.2 9.9 7.8-3.8 10.7-9.9 7.6-19-16.2-15.2-27.6 4-36.2 17.9-12.8 14.3-17.2 13.5-34.7 13.5-5.8-5.1-6.9-7.8-12.1-9-9.5-6.5-14.6-9-25-9-2.6 4.2-3.5 5.9-1.9 12 9.8 12.2 14.4 32.2 17.3 50.6 1.7 3.4 2.6 6.3 2.7 12-1.8 5.7-9.1 11.4-14.6 11.4-2.3-10.5-4.7-21.3-9.7-28.4-2.3-.6-10.9-.6-15.2 0-.9.8-.9.8-2.1 6.7 8.1 15.8 3.7 38.1 5.8 57.5 12.9 13.7 19.1.6 26.3-13.5 9.8-12.2 7.5-17.1 22.3-14.3 7-5.1 4.4-14.7 10.4-20.4 1.9-7.4 1.1-8.2 9.1-9 6.6 9.5-15.3 13.3-8 25.3 5.1 0 13.7-4.2 20.1-5.7 12.1-9.9 15.8 3 3.9 13.1-16.8 9.7-32.7 23-49 31.2-13.8 9.5-31 15.4-41.9 25.7-4.7 2.6-48.2 23.4-24.6 33.8zm87.8-61.9c-.2-.4-.4-.8-.4-1.1 7.5-8.9 12.7-11.4 25-10.5.2.6.3 1.3.5 1.9-5.1 0-6.7 3-10 5.1-10.4 3.1-11.3 4.1-15.1 4.6zm53.1-56.1c-1-.6-1.8-1.3-2.6-1.9.5-1.9 1.3-3.6 2-5.3.9-.2 1.7-.2 2.8-.2.1 1.7.2 5.9-2.2 7.4zm25.9-9.9c-1.3-3.8-2.5-7.4-3.6-10.9-8.5-5.7-22.7-15.4-15.1-25.9 5.3-.4 11.8-4 18.3-6.3 7.4-.4 20.2-7.6 27.1-2.1 2.9 12.6-15.2 33.5-22.2 44.9-1.6-.1-3 .1-4.5.3zM874.1 350.5c-15.8-5.3-23.2-7.8-12.8-22.1 20.2-9 43.8-28.9 60.2-45.3 5.7-24.6 6.3-45.5 7-69.1 2.1-8.6 17.3-53.3 9.3-58.5 0-13.3 1.1-18.1 15.8-18.1 24.4 10.7 14.3 47.6 2.5 66.1-10.9 31-12.6 64.2-14.1 98.6-1.5 6.7-12.4 24.4-18.3 12.6.6-2.3.6-2.3.6-9.3-1.1-.8-1.1-.8-5.7-1.1-10.5 13.9-24.9 35-38.5 44.9-2.2.5-4.1.9-6 1.3zm96.9-39.4c10.3-.6 26.5-3.2 37.3-7.4 10.5-.2 26.8 2.7 24.9-13.1-2.7-1.7-2.7-1.7-12.2-4.4-7 0-14.3 4.2-19.4 1.7 0-8.6 4.6-12 8.4-17.9 4.4-14.1 5.5-17.9 19-24.6 1.7-1.9 1.7-1.9 13.9-9.9 1.5-3.6 3-7 4.6-10.3-3.2-6.5-6.3-5.3-10.1-8.2v-2.1c16.6-13.3 10.5-27.4 5.7-41.9-17.9-12.4-20.9 3.8-23.2 19.4-4.2 6.7-8.2 13.7-12.2 20.6-3.6 8-8.4 14.5-12.2 22.1-6.7 3.4-13.5 6.7-20 10.1-.2 2.1-1.3 2.5.2 5.7 15.6 4.4 8.4 16.8 1.1 28.2-8.8 6.5-20.8 24-5.8 32zm-95.4-4.2c1.7-.2 3.6-.4 5.5-.4 9.7-9.7 23-19.2 33.3-28 3.4-15.6-1.5-24-15.6-27.4-17.7 0-25.3 11.8-10.3 24.6 3.5 7.2-14 19.8-12.9 31.2zm737 22.6c-8.6-1.4-14-9.3-5-12.2v-1.4c10.1-3.7 21.6-10.7 31.9-16.3 6.6-9.5 26.4-27 24.9-38.5-5.8-1.9-16.7 8.2-20.2 10.7-9.3 11.3-24.5 5.8-31.9-2.5 2.5-12 13.8-11.3 21.8-19.2 12.8-2.7 38.8-13.4 47-25.6 7-25.1 13.6-62.9 1.9-86.4-.6-9.5-1-15.1 4.5-21.6 13.4-.4 12.4 3.7 23.5 9.7 2.5 3.7 2.7 20.8 2.5 26.6-3.9 17.9-5 36.5-7.2 55.7 4.7 3.5 5 1.5 10.7-3.1 8.4-4.3 14.8-5.2 12.6-15.7.4-.8 1-1.5 1.5-2.3 8.7-.4 18.4-4.5 27.6-4.5 1 2.1 2.7 14.6-.8 18.1-12.2 6.8-25.4 17.3-36.1 25.8-10.1 6-10.1 6-16.1 10.9.6 2.5.6 2.5 2.5 4.9 13.2 5.8 17.7 27.4 31.9 38.5 9.9 11.3 18.6 15.9 35.2 19.8 9.3.8 18.5 1 28.2 6.4.2 1.9.4 3.9.6 5.8-21 8.4-47.8 13-68.6 7-7.4-7.4-9.7-10.1-11.1-17.3-8.6-14-13.8-27.4-20-39.8-3.5-3.5-3.5-3.5-7-9.3-8.7 0-6 7.6-11.1 13.6-6.4 15.1-14.6 27.6-24.7 41.6-8.6 20.6-25.8 19.8-44.3 19.8-1.5 0-3.1.4-4.7.8zm-474.8-17.2c-11.2-.6-30.8-4.6-36-10.9 0-21.9 8-16.8 27-19 7.4-.2 14.7-.4 22.3-.6 9-4 23.6-8.9 30.8-17.3.4-.2 1.1-.4 1.7-.6 0-5.3 9.7-11.8 14.1-15.4 9.7-16.4 23.8-30.8 36.6-44.2 0-1.5.2-3 .4-4.2-2.3-.2-4.6-.4-7-.4-12.8 3.2-47.6 10.9-56-1.1-9.5-28.4 26.1-23.6 44-23.6 16.2-3.6 33.7-7 52.6-7 13.1 3.6 15.2 20.9 12.6 33.7-9 6.7-20.9 12.8-29.1 19.8-5.3 6.5-31.6 35-27.8 43.8 4-.4 8-.8 12-1.1 16.8-7 36.9-12.2 36.9 15.2-3.4 7-14.9 7-20.9 8-24.6 1.3-44 4.6-65.9 13.3-16.7 4.2-32.5 9.7-48.3 11.6zM617 400.5h-11.4l-12.8 58.6h11.4l5-23 .2-.7h20.5l2.4-11h-20.5l.2-1.1 5-22.8zm35.4 0-12.8 58.6h-11.4l12.8-58.6h11.4zm111.7 0h-32l-2.4 11h20.7l-.2 1.1-2.4 10.9-.2.7h-20.7l-2.4 11h20.7l-.2 1.1-2.4 10.9-.2.7h-20.7l-2.4 11h32l12.8-58.4zm-37.6 0h2.2l-2.4 11-.2.7-.2 1-2.2 9.9-.2 1.1-1.7 7.8-5.9 27h-11.4l12.8-58.6 9.2.1zm-51.3 0h-11.4L651 459.1h42.1l12.7-58.6h-11.4l-10.2 46.8-.1.7h-19.3l.2-1.1zm111.7 0h-11.4l-12.8 58.6h11.4l7.3-33.4 5.5-25.2zm20.5 47.5-2.4 11h-27.4l2.4-11h27.4zm5.2-23.7-2.4 11h-27.4l2.4-11h27.4zm5.2-23.8h-27.4l-2.4 11h27.4l2.4-11zm22.8 0h-11.4l-12.8 58.6h11.4zm53.1.2h-11.3l-12.7 58.2h41.8l12.7-58.2h-11.3l-10.2 46.5-.1.7h-19.2l.3-1.1zm53.2 0h-11.3l-12.7 58.1h11.3l12.7-58.1zm35.2 0-12.7 58.1H958l-13.3-32.5 5.4-24.7 13 34.1 7.6-35h11.4zm22.7 0h-11.3l-12.7 58.2h11.3zm57.1 0h-11.2l-.4.9-26.7 57.3h11.2l27.1-58.2zm-34.4 0 3.7 31.6-9.1 19.5-6-51.1h11.4zm57.1 0h-11.3l-12.7 58.2h11.3l7.3-33.2 5.4-25zm20.4 47.2-2.4 10.9h-27.2l2.4-10.9h27.2zm5.2-23.6-2.4 10.9h-27.2l2.4-10.9h27.2zm5.1-23.6h-27.2l-2.4 10.9h27.2l2.4-10.9zm22.7 0h-11.3l-12.7 58.2h11.3l10.6-48.7 2.1-9.5zm20.7 58.2h-11.1l-14.3-20.2h11.1l14.3 20.2zm10.7-58.2-7.6 34.7h-28l2.4-10.9h16.6l.2-.7 2.4-10.9.2-1.1h-16.7l2.4-10.9h25.7l2.4-.2zm13.4 0h-1.9l-7.5 34.6h24.6l2.4-10.9h-13.3l.2-1.1 2.4-10.8.2-.7h28l2.4-10.9h-26.8l-10.7-.2zm24.7 58.2h-11.3l2.4-10.9.2-.7 2.4-10.8.2-1.1.7-3.1.3-1.2 1.5-6.6h11.3l-7.7 34.4zm-12.4-11h-24.5l-2.4 10.9h24.6l2.3-10.9zm47.8-47.2h-11.4l-12.7 58.2h11.4zm43 0h-11.4l-12.7 58.2h11.3l10.2-46.5.2-.7h15.3l2.4-10.9H1287l-1.1-.1zm-14.8 0-2.4 10.9h-16.8l2.4-10.9h16.8zm55.3 16.6-6.1-16.4h-11l9.8 25.4 7.3-9zm-1 41.6h-11.3l6.3-28.7 24.9-29.5h11.9l-25.8 30.9-6 27.3zm83.2-58.2h-9.6l-12.7 58.2h41.7l12.7-58.2h-32.1zm-8.3 46.1 7.5-34.5.2-.7h19.2l-.2 1.1-7.5 34.5-.2.7h-19.2l.2-1.1zm63.2-46.1h-11.3l-12.7 58.2h11.3l12.7-58.2zm25.7 23.6-2.4 10.9h-27.1l2.4-10.9h27.1zm5.1-23.6h-27.5l-2.4 10.9h27.5l2.4-10.9zm63.3-.2h-11.4l-12.8 58.6h11.4l10.2-46.8.2-.7h15.5l2.4-11h-15.5v-.1zm-14.9 0-2.4 11h-16.9l2.4-11h16.9zm53.1 0h-11.4l-12.8 58.6h11.4l7.3-33.4 5.5-25.2zm20.5 47.6-2.4 11h-27.4l2.4-11h27.4zm5.2-23.8-2.4 11h-27.4l2.4-11h27.4zm5.2-23.8h-27.4l-2.4 11h27.4l2.4-11zm20.4 0h-9l-12.7 58.6h41.3l2.4-11h-29.9l.2-1.2 7.6-34.6.1-.8h29.7l2.4-11h-28.5zm54.9 0h-11.4l-12.8 58.6h11.4l5-23 .2-.7h20.5l2.4-11h-20.5l.2-1.1 5-22.8zm35.4 0-12.8 58.6h-11.4l12.8-58.6h11.4zm22.8.1h-11.4L1736 459h11.4l12.8-58.4zm35.4 0-12.8 58.4h-11.4l-13.3-32.7 5.4-24.9 13 34.3 7.7-35.2 11.4.1zm21.1-.1h-9.6l-12.8 58.6h42.2l12.8-58.6h-32.6zm-8.4 46.4 7.6-34.7.2-.7h19.4l-.2 1.1-7.6 34.7-.2.7h-19.4l.2-1.1zm82.6 1.2H1865l-2.4 11h25.8l2.5-11zm-18.9-47.6-12.8 58.6h-11.4l12.8-58.6h11.4zm50.4 0h-9.6l-12.8 58.6h42.2l12.8-58.6h-32.6zm-8.3 46.4 7.6-34.7.2-.7h19.4l-.2 1.1-7.6 34.7-.2.7h-19.5l.3-1.1zm63.5-46.4h-11.4l-12.8 58.6h11.4l12.8-58.6zm23.3 46.4-.2 1.1h.1l-2.4 11h-29.9l2.4-11h18.5l.2-.7 2.4-11 .2-1.1h-14.3l2.4-11h25.6l-5 22.7zm10.1-46.4h-29.9l-2.4 11h29.9l2.4-11zm23 16.8-6.2-16.5h-11.1l9.9 25.6 7.4-9.1zm-1.1 41.8h-11.3l6.3-28.8 25.1-29.7h12l-26 31.1-6.1 27.4zM285.6 50.8c118.1 0 214.5 96.3 214.5 214.5s-96.3 214.5-214.5 214.5S71.1 383.5 71.1 265.3c0-118.1 96.4-214.5 214.5-214.5zm0 59c-85.7 0-155.6 69.9-155.6 155.6s69.9 155.5 155.6 155.5S441.1 351 441.1 265.3s-69.8-155.5-155.5-155.5zm0-74c-126.4 0-229.5 103.1-229.5 229.5s103.1 229.5 229.5 229.5 229.5-103.1 229.5-229.5S412 35.8 285.6 35.8zm0 10c-120.9 0-219.5 98.6-219.5 219.5s98.6 219.5 219.5 219.5 219.5-98.6 219.5-219.5S406.5 45.8 285.6 45.8z"/><path class="st1" d="m150.9 173.6-.9.3c-2.4-1.6-2.7-1.7-2.7-4.7-1-1.7-2.3-2.8-3.1-4.4-1.4-1.6-3.4-4-5-5.1-.2.3-.4.5-.5.7 1.3 2 2.3 4.7 3.6 7 .3 3.1-2.9 1.8-3.5.2-.7-1-1.2-2.2-1.8-3.2-.4 0-.4 0-.7.1.3 2.7.9 3.5 2.7 5.4.4.7.9 1.5 1.4 2.2-.4 1.5-1.5 2.2-2.5 1.9-1.4-1.3-2.8-2.6-4.1-3.8-1.3-1.6-2.8-4.7-4.1-5.9-.2.1-.4.1-.5.2-.5 1.8 0 4.6 1.1 6.1 2.6 2.4 6.6 6.6 7.4 10.5.8 1.3.8 1.3 1.1 2.1 2 2 2 4.4-1 4.7-1.9-.7-2.7-1.6-3.9-2.7-2.4-1.3-3.8-3.4-5.9-5.1-1.2-1.4-2.7-3.5-3-5.2.9-.1 2.7.7 4.1 1 .2.2 2 2 2.5 1.3-.2-1.4-3-5.3-4-6.3-.5-1.3-.9-1.9-1.7-3.9-.7-2.4-.9-5.3-.8-7.8-.9-2.8-4-5.5-5.5-7.8-2.1-2.1-2.4-1.6-.8-3.8 1.6-.4 4 1 6 1.4.6-.5 2-1.4 3.2-1.3 1.1.7 1.1.7 1.4.8.4-.5.5-.7.5-1.6 1.1-3.3-1.3-8.7 2.8-10.2 2.1.4 3.3 1.8 4.4 3.9 2.9 3.2 2.9 3.2 3.5 4.1 5 3.8 10.2 7.2 15.1 11.6 1.4 1.8 1.4 3.2.2 5-1 .5-2.4-.4-2.9-.7-1.7.4-3.6.9-5 1.1-.2.2-.4.5-.7.7 1.5 3.1 5.4 7.2 3.6 11.2zm-.8-15.8c-.1-1-1.9-2.2-2.4-2.1-1.7 1.7-2.2 2.4-4.2 2.3-.7 1 .7 1.6 1.6 2.2 2.3 0 3.1-1.3 5-2.4zm-6.3-4.3c.6-1.1.8-1.3-.5-1.8-3.4-2.7-6.1-5.3-9.1-8.1-1.4.1-.9 3.6-.8 4.5-.4.7-1.3 1.7-1.1 2.2.3.1.7.1 1 .1 2.9-1.3 4.5-1 7.2 1.5 1.1 1.3 1.5 1.7 3.3 1.6zm-10.9 11.4c.1-.3.2-.6.4-.8-.3-1.7-.2-2.6.2-4.2.8-.4.8-.4 2.1 0 2.2-1.8-2.7-6.2-3.9-7.3-.6-.2-1.1-.4-1.6-.7l-.5.5.3 2.1c-.8 3.7.5 6.6 2.7 9.8v.3c0 .1.2.2.3.3zm5.7-9.9c-.1-.9-1-1.4-1.4-1.5 0 .1-.1.1-.1.2.2.5.7 1 1.5 1.3zm-18.9 13.4c.2-.7-.7-2.5-.8-2.9-.6-3.1-2.2-5.8-4.3-7.9-3.3-1.5-4.8-1.8-6.3 1.3.7 3.1 4.6 3.1 6.9 5 1.2 1.2 2.8 4 4.5 4.5z"/><path class="st2" d="m238.4 214.7-2.5 1.1-.5 2.1 2.4-.9.6-2.3zm-4.1 7.9-.4 1.9 2.4-.9.5-2.1-2.5 1.1zm-1.6 6.8-.4 1.8 2.4-.9.5-2-2.5 1.1zm-1.6 6.8-.5 2.1 2.5-.9.5-2.3-2.5 1.1zm20.3-5.4 3-1.1-.6 2.6-3.1 1.5.7-3zm1.6-7.1 2.9-1-.6 2.4-3 1.5.7-2.9zm1.5-6.7 2.8-1-.6 2.7-3 1.4.8-3.1zm4.4-7.5-.6 2.6-2.9 1.4.7-3 2.8-1zm1.5-6.6-.6 2.7-2.8 1.3.7-2.9 2.7-1.1zm-4.2 1.5-.7 3-4.4 2 .8-3.4 4.3-1.6zm-2.4 9.7-4.1 1.8.8-3.4 4.1-1.5-.8 3.1zm-5.1 5 4.2-1.5-.7 3.1-4.3 1.9.8-3.5zm-1.6 6.9 4.2-1.5-.7 2.8-4.3 2 .8-3.3zm-16.9 85.2c.9.1 1.9.1 2.9.2-53.6 8.2-106.3-23-47.1-71.5 19.4-15.9 41.1-24.8 64.3-33.4l-.9 3.5-.3.1-9 3.8-.6 2.5 9.2-3.4-.9 3.7-9.2 3.9-.5 2.2 9-3.2-.9 3.5-9.2 4.2-.5 2.2 8.9-3.1-.8 3.4-9.2 4.3-.6 2.4 8.9-3.3-.9 3.6c-12.9 5.9-25.5 11.2-37 19.7-28.6 21.4-36.9 48 24.4 54.7zm15.2-78.3-.8 3.4 4.3-1.9.7-3-4.2 1.5z"/><path class="st0" d="m331.5 300.8 2.5-1.1.5-2.1-2.4.9-.6 2.3zm4.1-7.8.5-1.9-2.4.9-.5 2.1 2.4-1.1zm1.6-6.9.4-1.8-2.4.9-.5 2 2.5-1.1zm1.6-6.7.5-2.1-2.5.9-.5 2.3 2.5-1.1zm-20.3 5.4-3 1.1.6-2.6 3.1-1.5-.7 3zm-1.6 7.1-2.9 1 .5-2.4 3-1.5-.6 2.9zm-1.5 6.6-2.8 1 .6-2.7 3-1.5-.8 3.2zm-4.4 7.6.6-2.6 2.9-1.4-.7 3-2.8 1zm-1.5 6.6.6-2.7 2.8-1.3-.7 2.9-2.7 1.1zm4.2-1.5.7-3 4.4-2-.8 3.4-4.3 1.6zm2.4-9.8 4.1-1.8-.8 3.4-4.1 1.5.8-3.1zm5.1-5-4.2 1.5.7-3.1 4.3-1.9-.8 3.5zm1.6-6.8-4.2 1.5.7-2.8 4.3-2-.8 3.3zm16.9-85.2c-1-.1-1.9-.1-2.9-.2 53.6-8.2 106.3 23 47.1 71.5-19.4 15.9-41.1 24.8-64.3 33.4l.9-3.5.3-.1 9-3.8.6-2.5-9.2 3.4.9-3.7 9.2-3.9.5-2.2-9 3.2.9-3.5 9.2-4.2.5-2.2-8.9 3.1.8-3.4 9.2-4.3.5-2.4-8.9 3.3.9-3.6c12.9-5.9 25.5-11.2 37-19.7 28.7-21.4 37-48.1-24.3-54.7zm-15.2 78.2.8-3.4-4.3 1.9-.7 3 4.2-1.5z"/><path class="st2" d="m208.4 182.1-1.7 7.5 61.4 7.1-12.9 60.1c18.9-4 38.6-8.9 57.5-12.9 3.3-1.3 5.7-3.6 6.9-6.4l8.9-39.9c1.5-2.6 3.9-4.1 7.3-4.6l71.3.2.2-.9-19.5-10.3-179.4.1z"/><path class="st0" d="m242.5 315.6 8.8-40.4c2.5-7.3 5.6-10.1 13.3-11.8 17.5-4 35-8.1 52.4-12.1l-14.5 67.6 61 7.1-1.6 7.5H162.7l-.2-.9 18.4-9.7 51 .2c5 0 8.9-2.8 10.6-7.5zm77.8 66h-13.8v-.4c4.2-5 6.8-8.4 7.7-10.2.9-1.7 1.4-3.4 1.4-5.1 0-1.2-.4-2.2-1.1-3s-1.7-1.2-2.8-1.2c-1.8 0-3.1.9-4.1 2.7l-.6-.2c.6-2.2 1.6-3.9 2.8-4.9s2.7-1.6 4.4-1.6c1.2 0 2.3.3 3.3.8s1.8 1.3 2.3 2.3.8 1.9.8 2.7c0 1.5-.4 3.1-1.3 4.7-1.2 2.1-3.7 5.1-7.6 8.9h5.1c1.3 0 2 0 2.4-.1.4-.1.7-.3.9-.5.2-.3.6-.8 1-1.6h.6l-1.4 6.7zm-28.7-23.5h11l-1.7 4.5h-9.2l-.9 2.3c4 .1 7 1.1 9.2 3 1.8 1.5 2.6 3.4 2.6 5.6 0 1.4-.4 2.9-1.2 4.2-.8 1.4-2 2.4-3.5 3.2s-3.1 1.1-4.9 1.1c-1.9 0-3.4-.4-4.4-1.1-.7-.5-1.1-1.1-1.1-1.7 0-.5.2-.9.6-1.3s.8-.6 1.3-.6.9.1 1.4.3 1.3.7 2.4 1.5c.7.5 1.3.8 1.8 1 .4.1.8.2 1.2.2 1 0 1.8-.3 2.4-1 .7-.7 1-1.5 1-2.5 0-2-1-3.7-3-4.9-2-1.3-4.6-1.9-7.7-1.9h-1.4l4.1-11.9zm-13.9 12.6c.1-1.3.2-2.4.2-3.4 0-2.1-.2-4-.7-5.9-.3-1-.7-1.7-1.2-2.2-.3-.3-.7-.4-1.1-.4-.6 0-1 .3-1.4.7-.5.7-.7 2-.7 3.9 0 3.2.4 5.4 1.1 6.6.5.8 1.2 1.2 2 1.2.5.1 1.1-.1 1.8-.5zm-9.9 11.4v-.5c1.9-.4 3.5-1.1 4.9-1.9 1.3-.9 2.4-1.9 3.2-3.2.8-1.3 1.3-2.7 1.6-4.3-.7.4-1.3.6-1.8.8-.5.1-1 .2-1.6.2-1.8 0-3.3-.6-4.4-1.9-1.2-1.3-1.8-3-1.8-5.3 0-1.5.3-3 1-4.3.6-1.3 1.5-2.3 2.7-3s2.4-1.1 3.7-1.1c1.4 0 2.7.4 3.9 1.2s2.2 1.9 2.9 3.4c.7 1.5 1.1 3.2 1.1 5.1 0 2.5-.6 4.8-1.8 7.1s-2.9 4.1-5.3 5.4c-2.3 1.4-5.1 2.2-8.3 2.3zm-9-24.4v19.2c0 1.4.1 2.4.2 2.8.1.4.4.7.8 1s1 .4 1.9.4h.5v.6h-12.3v-.6h.6c1 0 1.7-.1 2.1-.4.4-.2.7-.5.9-1 .1-.4.2-1.4.2-2.8v-12.1c0-1.1-.1-1.8-.2-2-.1-.3-.3-.5-.6-.7-.3-.2-.6-.3-1-.3-.6 0-1.3.2-2.1.5l-.3-.6 8.6-3.9.7-.1z"/><path d="m84.3 271.9 23-2.8.2 1.5.2 1.6-9.4 1.2 1.5 12 9.4-1.2.2 1.5.2 1.6-23 2.8-.2-1.5-.2-1.6 10.8-1.3-1.5-12-10.8 1.3-.2-1.5-.2-1.6zm15.7 39.8c-2.8.6-5.2.4-7.1-.8-1.9-1.2-3.2-3.2-3.9-6-.7-2.9-.4-5.3.7-7.1 1.2-1.9 3.2-3.1 6.1-3.8l14.3-3.3.3 1.5.4 1.5-14.1 3.3c-2.1.5-3.6 1.4-4.4 2.6s-1.1 2.8-.6 4.7 1.3 3.2 2.6 4 3 .9 5.1.4l14.1-3.3.3 1.5.3 1.5-14.1 3.3zm-6.2 7.5.5 1.5 2.6 7.5c.9 2.5 2.1 4.2 3.7 5.2s3.5 1.1 5.5.5c1.8-.6 3.1-1.9 3.6-3.6.2-.7.3-1.4.3-2.2.3.3.6.6 1 .8 1.5 1 3.1 1.2 5 .6 1.6-.5 2.6-1.5 3.2-3 .6-1.5.5-3.1-.1-5l-2.8-8.2-.5-1.5-22 7.4zm20.4-3.7 2 5.7c.5 1.5.6 2.6.3 3.5-.3.9-1 1.5-2.1 1.9-1.3.4-2.3.4-3.1-.2-.8-.5-1.5-1.6-2.1-3.2l-1.8-5.3 6.8-2.4zm-9.2 3.2 2 5.8c.6 1.8.8 3.2.5 4.2-.3 1-1.1 1.8-2.3 2.2-1.4.5-2.6.5-3.5-.1-.9-.6-1.7-1.7-2.3-3.4l-2.1-6 7.7-2.7zm-3.3 21.7 20.7-10.5 7.7 15.1-1.2.6-1.2.6-6.3-12.3-6.3 3.2 5.7 11.3-1.2.6-1.2.6-5.7-11.3-6.9 3.5 6.4 12.5-1.2.6-1.2.6-8.1-15.1zm10.6 19.8.8 1.4.8 1.4 20.1-11.6-.8-1.4-.8-1.4-20.1 11.6zm30.8 27.7c-2.2 1.8-4.5 2.6-6.7 2.4-2.3-.2-4.3-1.5-6.1-3.7-1.9-2.3-2.7-4.6-2.5-6.8.2-2.2 1.5-4.2 3.8-6.1l11.4-9.3 1 1.2 1 1.2-11.2 9.1c-1.7 1.4-2.6 2.8-2.9 4.3-.2 1.5.3 3 1.5 4.5s2.6 2.3 4.1 2.4c1.5.1 3.1-.5 4.8-1.9l11.2-9.1 1 1.2 1 1.2-11.4 9.4zm-.7 11.7 12.9-13.9-4.2 22 1.3 1.2 1.3 1.2 15.8-17-1.1-1-1.1-1-12.9 13.8 4.4-21.7-1.4-1.3-1.4-1.3-15.8 17 1.1 1 1.1 1zm16.2 14.3 14.9-17.8 1.2 1 1.2 1-14.9 17.8-1.2-1-1.2-1zm19-14.4-6.4 23.9 1.4 1 1.4 1 20.2-14.2-1.4-1-1.4-1-16.8 12.5 5.9-20.1-1.4-1-1.5-1.1zm7 32.6 11.3-20.3 14.8 8.2-.7 1.2-.7 1.2-12.1-6.7-3.4 6.2 11.1 6.1-.7 1.2-.7 1.2-11.1-6.1-3.8 6.8L201 438l-.7 1.2-.7 1.2-15-8.3zm20 10.3 1.5.6 1.5.6 3.6-9.4 7 2.7c1.4.5 2.3 1.2 2.7 2 .4.8.4 1.9-.1 3.3l-.6 1.7c-.3.9-.6 1.8-.8 2.6-.2.8-.3 1.3-.3 1.5l3.6 1.4.2-.5c-.3-.4-.5-.7-.6-1.1 0-.3.1-.8.3-1.5l1.4-4c.6-1.8.4-3.4-.6-4.6l-.4-.4c.4-.1.9-.2 1.3-.3 1.7-.6 2.9-1.8 3.6-3.7.7-1.9.7-3.6-.1-5.1-.8-1.5-2.4-2.6-4.7-3.5l-8.6-3.3-1.5-.6-8.4 21.6zm7.5-10.7 2.8-7.3 7 2.7c1.4.5 2.4 1.3 2.8 2.1s.4 1.9-.1 3.1c-.5 1.3-1.2 2.1-2 2.5-.9.4-2 .3-3.3-.3l-7.2-2.8zm32.6 6.5c.3-1.5 0-2.7-.8-3.7s-2-1.8-3.6-2.2c-1.7-.5-3.1-.5-4.1 0-1.1.4-1.8 1.3-2.1 2.5-.2.9-.1 1.6.4 2.2.5.6 1.5 1.3 3.2 2.2l3.6 2c2 1 3.3 2.2 3.9 3.4.6 1.2.7 2.7.3 4.5-.5 2-1.8 3.4-3.6 4.2-1.9.8-4.1.8-6.7.1-2.9-.8-5-2.1-6.3-3.9-1.3-1.8-1.6-3.9-.9-6.2v-.2l2.8.8c-.4 1.6-.1 3 .8 4.2s2.4 2 4.4 2.6c1.9.5 3.4.6 4.5.2 1.1-.4 1.9-1.2 2.2-2.4.3-1.1.2-2-.3-2.6-.5-.7-1.6-1.5-3.4-2.5l-3.7-2c-1.9-1-3.1-2-3.7-3.1-.6-1.1-.7-2.3-.3-3.8.6-2.1 1.8-3.6 3.6-4.5 1.8-.9 3.9-1 6.4-.3 2.5.7 4.4 1.8 5.5 3.5s1.5 3.6 1 5.9l-3.1-.9zm4.2 17.6 4-22.9 1.5.3 1.6.3-4 22.9-1.5-.3-1.6-.3zm15.1 2.5 2.5-20.3-7.8-1 .2-1.4.2-1.4 18.7 2.3-.2 1.4-.2 1.4-7.8-1-2.5 20.3-1.5-.2-1.6-.1zm21.4-8.1-.3 9.3 1.6.1h1.6l.3-9.2 9.2-13.7-1.8-.1-1.8-.1-7.1 11-6.3-11.5-1.9-.1-1.8-.1 8.3 14.4zm32.8 7.2c-3.3.6-6.2.1-8.7-1.8-2.5-1.8-4.1-4.5-4.8-8.1-.7-3.6-.2-6.7 1.4-9.3s4.1-4.2 7.4-4.9c3.3-.6 6.2-.1 8.7 1.8s4.1 4.5 4.8 8.1c.7 3.6.2 6.7-1.4 9.3-1.6 2.6-4.1 4.3-7.4 4.9zm-.6-2.7c2.4-.5 4.1-1.7 5.3-3.7 1.1-2 1.4-4.4.9-7.1-.5-2.8-1.7-4.9-3.5-6.3-1.8-1.4-3.9-1.9-6.2-1.5s-4.1 1.7-5.2 3.7c-1.1 2-1.4 4.4-.9 7.1s1.7 4.9 3.5 6.3c1.7 1.4 3.8 1.9 6.1 1.5zm16-.9 1.5-.5 1.5-.5-3.1-10.1 10.8-3.3-.4-1.3-.4-1.3-10.8 3.3-2.1-6.8 12.4-3.8-.4-1.3-.4-1.3-15.4 4.7 6.8 22.2zm31.6-10.4-8.6-18.5-7.1 3.3-.6-1.3-.6-1.3 17.1-8 .6 1.3.6 1.3-7.1 3.3 8.6 18.5-1.4.7-1.5.7zm13.7-6.3 14.7-8.8-.7-1.2-.7-1.2-12 7.2-4-6.7 10.8-6.5-.7-1.2-.7-1.2-10.8 6.5-3.6-6.1 11.9-7.1-.7-1.2-.7-1.2-14.5 8.7 11.7 20zm29.4-29.7c1.4 2.5 1.9 5 1.4 7.4-.5 2.4-1.8 4.4-4 6-2.6 1.9-5.3 2.6-8.1 2s-5.4-2.4-7.6-5.4c-2.3-3-3.3-6-3-8.9s1.7-5.4 4.4-7.4c2.1-1.6 4.2-2.3 6.4-2.3 2.1.1 4.1.9 5.8 2.6l-2.4 1.8c-1.2-1-2.4-1.6-3.9-1.5-1.4 0-2.8.5-4.2 1.6-1.9 1.4-2.8 3.2-2.9 5.4s.8 4.5 2.5 6.8c1.9 2.5 3.8 3.9 5.8 4.5 2 .5 4 0 5.9-1.4 1.4-1.1 2.3-2.4 2.6-4 .3-1.6 0-3.3-1-5.2l2.3-2zm8.7 4.2 1.1-1.1 1.1-1.1-7.4-8 8.9-8.3 7.4 8 1.1-1.1 1.1-1.1-15.8-17-1.1 1.1-1.1 1.1 6.5 7-8.9 8.3-6.5-7-1.1 1.1-1.1 1.1 15.8 17zm19.5-19.1-1 1.2-1 1.2-18-14.6 1.2-1.5 1.2-1.5 22 2.8-14.7-11.9 1-1.2 1-1.2 18 14.6-1.1 1.3-1.1 1.3-22.2-2.6 14.7 12.1zm19.1-24.5c1.9-2.8 2.5-5.7 1.8-8.7-.7-3-2.6-5.5-5.6-7.5-3-2-6.1-2.8-9.1-2.4-3 .5-5.5 2.1-7.4 4.9-1.9 2.8-2.5 5.7-1.8 8.7.7 3 2.6 5.5 5.6 7.5 3 2 6.1 2.8 9.1 2.4 3.1-.5 5.6-2.1 7.4-4.9zm8.1-13.5-21-9.8.7-1.4.7-1.4 18.5 8.6 5-10.7 1.3.6 1.3.6-6.5 13.5zm12.2-26.2c-1.1 3.2-3.1 5.3-6 6.5-2.8 1.2-6 1.2-9.4-.1-3.4-1.3-5.9-3.2-7.3-6-1.4-2.7-1.5-5.7-.4-8.8 1.2-3.2 3.1-5.4 6-6.5 2.8-1.2 6-1.1 9.4.1 3.4 1.3 5.9 3.2 7.3 6 1.5 2.7 1.6 5.6.4 8.8zm-2.6-1c.8-2.3.7-4.4-.4-6.4s-3-3.5-5.7-4.4c-2.7-1-5.1-1-7.2-.3s-3.6 2.3-4.5 4.6c-.8 2.3-.7 4.4.5 6.4s3 3.5 5.7 4.4c2.6 1 5 1 7.2.3 2.1-.8 3.6-2.3 4.4-4.6zm10-23.6c.6-3 .1-5.7-1.7-8l-.2-.2 3-.1.4-1.9-12-2.5-2.1 9.9 2.6.5 1.5-7.1.3.1c.6.1 1.3.4 2 .7.7.3 1.2.6 1.5 1 .3.3.5.5.7.8 1.4 1.8 1.9 3.9 1.4 6.2-.5 2.4-1.7 4.1-3.6 5.1-1.9 1-4.3 1.1-7.3.5-2.8-.6-4.9-1.8-6.3-3.5-1.4-1.7-1.9-3.7-1.4-5.9.4-1.9 1.1-3.3 2.2-4.3s2.4-1.5 3.9-1.5l.6-3c-2.2-.1-4.2.5-6 2-1.8 1.5-2.9 3.5-3.4 6-.7 3.2-.1 6 1.6 8.5 1.8 2.5 4.5 4.1 8 4.8 3.6.8 6.7.4 9.3-1.1 2.7-1.5 4.3-3.8 5-7zm-5.9-23.7-14.8 7.3.2-1.8.2-1.8 11.9-5.5-10.5-7.8.2-1.8.2-1.8 13 10.2 9.2 1-.2 1.5-.2 1.6-9.2-1.1z" style="fill:#fff"/><path d="M453.3 366.4c-1.4 2-3.2 3.1-5.4 3.4-2.3.3-4.6-.4-6.9-2-2.4-1.6-3.8-3.5-4.4-5.7-.6-2.2-.3-4.3 1.1-6.3 1.4-2 3.2-3.1 5.4-3.4 2.3-.3 4.6.4 6.9 2 2.3 1.6 3.8 3.5 4.4 5.7.7 2.2.3 4.3-1.1 6.3z" style="fill:#0067ab"/><path class="st1" d="M185.5 137.2c-3 1.2-4.4 1.8-4.6-1.6 1.8-3.8 2.8-9.7 3.2-14.1-2.2-4.3-4.8-7.4-7.6-11-.8-1.5-4.1-9.9-5.9-9.7-1.6-1.9-2.1-2.8.1-4.6 4.9-1.5 8 5.2 8.6 9.3 2.3 5.9 6.2 11 10.2 16.2.6 1.2 1.2 5.1-1.1 4.1-.2-.4-.2-.4-1.1-1.4-.3 0-.3 0-1 .6.2 3.3.7 8.2 0 11.4-.3.2-.5.5-.8.8zm9.3-17.8c1.4-1.4 3.5-3.8 4.5-5.7 1.5-1.3 4.3-2.9 2-5-.6.1-.6.1-2.3.9-1 .9-1.6 2.4-2.6 2.7-1.1-1.3-.8-2.3-1-3.7-1.1-2.6-1.4-3.3-.3-6 0-.5 0-.5.8-3.2l-.6-2.1c-1.3-.6-1.6 0-2.5.1l-.3-.3c.8-4-1.9-5.3-4.4-6.8-4.2.4-2.6 3.2-1 5.7.2 1.5.5 3 .8 4.5.5 1.6.6 3.2 1 4.8-.6 1.3-1.1 2.7-1.7 4 .2.3.1.5.7.8 2.8-1.3 3.3 1.4 3.7 4-.4 1.9 0 6 3.2 5.3zm-14.5 11.3c.2-.2.5-.5.8-.7.2-2.6 1-5.7 1.4-8.2-1.4-2.7-3.2-3.3-5.7-2.1-2.6 2.2-2.2 4.9 1.6 4.9 1.3.5.4 4.5 1.9 6.1zm56.7-28.8c-2 .3-5.7.3-6.8-.6-.8-3.9.8-3.3 4.1-4.4 1.3-.3 2.6-.6 4-.9 1.5-1.1 3.9-2.5 4.9-4.2.1-.1.2-.1.3-.2-.2-.9 1.3-2.5 1.9-3.3 1.1-3.3 3.1-6.4 4.9-9.3-.1-.3-.1-.5-.1-.8-.4.1-.8.1-1.3.2-2.2 1-8.1 3.7-10.1 1.9-2.8-4.7 3.8-5.2 7-5.9 2.8-1.2 5.8-2.5 9.1-3.2 2.5.2 3.5 3.2 3.5 5.6-1.4 1.5-3.3 3.1-4.5 4.6-.7 1.4-4.3 7.4-3.3 8.9l2.1-.6c2.8-1.9 6.1-3.6 7.1 1.3-.3 1.4-2.4 1.8-3.4 2.2-4.4 1.1-7.7 2.5-11.3 4.8-2.7 1.4-5.3 2.9-8.1 3.9zm71.2 2.9c-1.8-1.7-1.1-1.8-.6-3.8 2.1-.6 2.1-.6 4.9-1.2 1.6-.7 3.2-1.3 4.8-1.9.9-.6 2.3-.6 2.3-1.9-1.1-.3-1.5-.2-4.7-.9-.4-.6-.7-1.1-1-1.6.9-2.7 3.2-2.1 5.8-2.5-.4-1.4-1-1-1.8-1.3-1.5-1-.7-2-.5-3 .7-.7 3 .2 3.3-1.3-2-1-1.2-3.6-.6-4.9-1.5-.9-2.7-.3-4 .4h-1.7c-3.5 2-9.5 0-7.3-4.2 1.9-1 4-.2 6.3.1 2.7-.3 5.7-.9 8.5-1.2 1-.6 1.9-3.3.9-3.1-.4.4-.7 1-1 1.3-2.8 0-3.3-.2-4.7-2 .8-4.4.8-4.3 5.1-3.4 3.1-.9 3.2-4.3 3.9-6.8.7-.8 1.2-.8 2.4-.7 1.6 2 1.9 2.3 1.4 5.3-.4.7-.8 1.4-.6 2.6.9-.7 4.9-4.1 5.8-2.7-.1.5-.1 1-.2 1.4-.3.1-.5.2-.8.3-.1.6-1 2.7-.7 3.4.4-.5.4-.5 1.1-2.7.1-.1.3-.1.5-.1 1-2.7 1.4-5.1 2.4-7.6 2.6-2.2 4.3 1.6 4.1 4.2-.1.3-.3.6-.5 1-1.1 1.1-4.9 6.4-3.8 8.2 1.3.1 3.3-.1 4.7.8 1.2 2.8 2.1 6.6-2.5 5.6-1.1-.9-3.9-3.9-5.1-3.5-.1.3-.2.7-.3 1 1.3 1.2 2 3.5.2 5.2-.6.2-1.2.4-1.9.7-.1.3-.2.8-.2 1.2.9 2.6-1.8 2.4-2.9 3.8 1.8 1.7 3.5-.4 2.4 3.5-2 .9-5 .6-6.4 1.9-.9 3.4-1.8 6.8-2.6 10.2-1.2 1.5-3.6 1.4-4.3-.2 0-1.6-1.1-2.7-1.8-3-2.2.6-4 2.7-6.1 3.5-.9 0-1.5-.1-2.2-.1zm22.6 1.4c2.4.1 2.8-3 2.3-4.6-.4-.6-.7-1.2-1.1-1.7-1.9-1.1-4.8-2.8-6.4-1.4 1 2.1 3.1 6.2 5.2 7.7zm-6.3-21.3c.2 0 .4-.1.5-.1.1-.2.1-.3.2-.4-.1-.1-.3-.1-.5-.1l-.4.4c.1 0 .1.1.2.2zm.9-.6c1 0 3.5-1.5 3.7-2.6-.2 0-.3-.1-.5-.1-.1.1-.1.2-.1.3-1.1.2-2.8 1-3.1 2.4zm.2-4.5c1.4-.1 2.9-.9 4.5-1.4 0-.2.1-.3.1-.5-1.1-.3-6.2-.5-4.6 1.9zm2-5.4c.3-.1.5-.1.8-.2-.5-.1-.9-.2-1.3-.3.2.1.3.3.5.5zm2 .2c.1-.1.3-.1.4-.1-.3-.1-.5-.1-.8-.2.2.1.3.2.4.3zm40.7 41.9c-.9-1.1-.7-2.6.7-2 .1-.1.1-.1.1-.2 1.6.6 3.7 1 5.6 1.4 1.8-.4 6.1-.4 7.1-2-.5-.9-2.9-.8-3.6-.9-2.3.4-3.6-1.9-3.6-3.7 1.6-1.2 2.9.1 4.7 0 1.8 1.1 6.1 2.5 8.4 1.9 3.5-2.3 8.4-6.1 9.5-10.2 1-1.2 1.5-1.9 2.9-2.1 1.7 1.4 1.1 1.8 1.8 3.7-.1.7-1.9 2.8-2.5 3.5-2.4 1.7-4.5 3.9-6.8 5.9.2.9.4.7 1.6.8 1.5.4 2.3.9 3.2-.5.1-.1.3-.1.4-.1 1.1.9 2.7 1.4 3.8 2.4-.1.4-1.2 2.1-2 2.1-2.2-.5-4.9-.6-7.1-.8-1.9-.4-1.9-.4-3.1-.4-.2.4-.2.4-.2.9 1 2.1-.8 5.2-.3 8.1 0 2.4.5 3.9 2.1 6.1 1 1.1 2.1 2.1 2.7 3.8-.2.3-.4.5-.5.8-3.4-1.2-7.2-3.6-9-6.5-.1-1.7-.1-2.3.5-3.3.5-2.6 1.3-4.8 1.9-6.9 0-.8 0-.8.1-1.9-1-.9-1.5.3-2.8.4-2.4 1.1-4.7 1.8-7.4 2.4-3.2 1.6-5.2-.4-7.5-2.3-.2-.2-.5-.3-.7-.4zm50.3 57.9c-.3-1.1-.8-4.2-.6-4.8.3-.3.5-.5.8-.7.3 0 .6.1.9.1 1.1 2.3 2.2 5.9 4.6 7.8 1.5 2 3.1.6 4.6-.5 1.1-1.1 2.2-2.2 3.3-3.2-.6-2.4-7.1-4.7-9.3-6-.7-.9-1.4-1.8-2.2-2.7-.2-.9-.3-1.3-.6-1.9.2-.8 1.6-1.3 2.1-1.2 1 .7 1.9 1.6 2.9 2.3 2.3.9 3.9 1.7 5.9 3.5 1.4.9 2.9 2.3 4.3 3.5.7-.1 2.8 2.7 3.4 3.6 1 .8 1.4 1.9 2.9 2.6.3.4.3.4.5 1-1.5 1.7-3.5 1.6-5.3 0-1-3.7-3.7-.9-5.8.4-.3.4-.6.9-.8 1.4-1.4.9-4.6 3.7-6.5 2.9-1.6-2.8-3.3-5.4-5.1-8.1zm4.9-18c.7.7 1.8 2.5 2.3 2.9 1.5.6 2.9 1.4 4.4 2.1 1.9 1.4 5 2 7.4 2.6 1.5.8 1.5.8 3.9 2.3 1.3.4 4.8 2.7 5.2 4.5-.4 0-.9 0-1.3.1-2.5-.8-3.9-1.2-6.6-1.5-.9-.4-1.5-.6-2 .6.5.5 1 .8 1.9.9 1.5.8 3.2 1.8 4.9 2.1 1.4.6 4.6 2.7 5.9 2.4 5.4-2.9.3-6.5-3.2-8.1-.3-.5-.6-1-.9-1.4 0-.1.1-.1.1-.2 1.4 1 3.1 1.2 4.6 2.1 1.8 2.7 2.5 3.9 6 4.2 1.2-.3 2.4-.3 3.3-.6 1 .2 1 .2 3.4.3 1.8-.2 3.6-.4 5.3.1 1.7-.7 3.4-2.5 3-4.1-.8-1.6-2-3.2-3-4.3-.4-.3-6.1-2.9-4.2-3.3 1.3.8 2.4.6 3.4-.8.6-4-3.2-3.7-6-3.5-3.3-.4-3.5-1.2-5.2-3.8.2-1.4.5-1.8.2-2.7 0-2.1-.1-3.1-1-4.6-.8.1-1.2.1-1.9.9-.8 2.7-3.3 5.4-5.6 7.8-.3.6-.7 1-1.5 1.6-1 .3-2.5-.2-3-1 1.3-1.4 2.6-2.9 3.1-4.4-.1-.4-.9-1.7-1.4-2.3-.2-.1-.2-.1-1.2.4-1.5 2.8-5.1 4.4-7.7 6.7-.8 3.3 1.7 2.9 4.4 2.5 2.7.2 3.1-.6 4.1 1.9 1.4.5 2.5-.9 3.9-.5 1.2-.5 1.3-.7 2.2.4-.7 1.9-3.3-.9-4.4 1.4.5.8 1.9 1.6 2.7 2.4 2.6.8 1.1 2.6-1.5 1.9-3-1.5-6.4-2.5-9.1-4.1-2.6-1.1-5.1-3-7.6-3.6-1-.5-8.1-4.8-7.3-.3zm17.1 6.8c.4.5.6.6 2.1 1.8.6.3 1.2.2 1.7 1 .1-.1.1-.2.2-.3-1-1.9-1.9-2.4-3.9-2.6 0-.1-.1 0-.1.1zm13 2.1v-.6c.3-.1.6-.2.9-.2.1.1.2.2.3.4-.2.2-.8.6-1.2.4zm3.8 2.8c.4-.6.8-1.1 1.2-1.6 0-1.9.1-4.9 2.3-4.9.6.7 1.7 1.3 2.6 2.1.8 1.1 3 2.2 2.8 3.8-1.5 1.7-6.2 1.2-8.5 1.3 0-.3-.2-.5-.4-.7z"/></svg>